<?xml version="1.0" encoding="UTF-8"?>
<svg width="16px" height="16px" viewBox="0 0 16 16" version="1.1" xmlns="http://www.w3.org/2000/svg" xmlns:xlink="http://www.w3.org/1999/xlink">
    <!-- Generator: sketchtool 52.5 (67469) - http://www.bohemiancoding.com/sketch -->
    <title>6C1DAA7A-53DC-479A-9248-5E050F886BDF</title>
    <desc>Created with sketchtool.</desc>
    <defs>
        <polygon id="path-1" points="0.00344086022 0.0489352422 15.9691171 0.0489352422 15.9691171 15.9819302 0.00344086022 15.9819302"></polygon>
    </defs>
    <g id="Classificados" stroke="none" stroke-width="1" fill="none" fill-rule="evenodd">
        <g id="1.0.0_anuncio_cnpj_telefone" transform="translate(-956.000000, -929.000000)">
            <g id="002-call-answer" transform="translate(956.000000, 929.000000)">
                <mask id="mask-2" fill="white">
                    <use xlink:href="#path-1"></use>
                </mask>
                <g id="Clip-2"></g>
                <path d="M15.6111254,12.6511828 L13.1449462,10.1847742 C12.6536487,9.69554122 11.8402867,9.71033692 11.3320143,10.2188387 L10.089405,11.4609892 C10.0109534,11.4177491 9.92963441,11.3725018 9.84430108,11.3245591 C9.0596129,10.8899785 7.98589247,10.2940789 6.85574194,9.16324014 C5.72243728,8.02999283 5.12590681,6.95449462 4.68994982,6.16929032 C4.64384229,6.08619355 4.59968459,6.00602151 4.55621505,5.9298638 L5.39022222,5.09717563 L5.80020072,4.6867957 C6.30916129,4.17737634 6.32326882,3.36418638 5.83311828,2.87363441 L3.36693907,0.406767025 C2.87701792,-0.0831541219 2.06319713,-0.0683584229 1.55400717,0.441060932 L0.858896057,1.13995699 L0.877935484,1.15876703 C0.6449319,1.45628674 0.450064516,1.79922581 0.305089606,2.16911828 C0.171584229,2.52123297 0.0884874552,2.85706093 0.0504086022,3.1937491 C-0.275326165,5.89333333 0.958336918,8.36060215 4.30646595,11.7087312 C8.93436559,16.3364588 12.6639713,15.9867527 12.8248315,15.9697204 C13.1751685,15.9278566 13.5109964,15.8440717 13.8523871,15.7116559 C14.2188387,15.5682867 14.5618351,15.3738208 14.8588961,15.1413333 L14.8740932,15.1547527 L15.5782079,14.4652616 C16.0862509,13.9560717 16.1010466,13.1426523 15.6111254,12.6511828 Z" id="Fill-1" fill="#C6CCD6" mask="url(#mask-2)"></path>
            </g>
        </g>
    </g>
</svg>