<?xml version="1.0" encoding="UTF-8"?>
<svg width="16px" height="20px" viewBox="0 0 16 20" version="1.1" xmlns="http://www.w3.org/2000/svg" xmlns:xlink="http://www.w3.org/1999/xlink">
    <!-- Generator: Sketch 49 (51002) - http://www.bohemiancoding.com/sketch -->
    <title>excluir</title>
    <desc>Created with Sketch.</desc>
    <defs>
        <polygon id="path-1" points="0.025 0.333333333 0.025 19.9995833 15.9991667 19.9995833 15.9991667 0.333333333"></polygon>
    </defs>
    <g id="Layout" stroke="none" stroke-width="1" fill="none" fill-rule="evenodd">
        <g id="7.0.0_Servicos_frete" transform="translate(-343.000000, -30.000000)">
            <g id="excluir" transform="translate(343.000000, 30.000000)">
                <path d="M7.99958333,17.33375 C8.18375,17.33375 8.33333333,17.18375 8.33333333,17 L8.33333333,6.00083333 C8.33333333,5.815 8.18375,5.66708333 7.99958333,5.66708333 C7.81583333,5.66708333 7.66583333,5.815 7.66583333,6.00083333 L7.66583333,17 C7.66583333,17.18375 7.81583333,17.33375 7.99958333,17.33375 Z" id="Fill-1" fill="#000000"></path>
                <path d="M4.66625,17.33375 C4.85041667,17.33375 5,17.18375 5,17 L5,6.00083333 C5,5.815 4.85041667,5.66708333 4.66625,5.66708333 C4.4825,5.66708333 4.3325,5.815 4.3325,6.00083333 L4.3325,17 C4.3325,17.18375 4.4825,17.33375 4.66625,17.33375 Z" id="Fill-2" fill="#000000"></path>
                <g id="Group-6">
                    <mask id="mask-2" fill="white">
                        <use xlink:href="#path-1"></use>
                    </mask>
                    <g id="Clip-4"></g>
                    <path d="M11.3329167,17.33375 C11.5170833,17.33375 11.6666667,17.18375 11.6666667,17 L11.6666667,6.00083333 C11.6666667,5.815 11.5170833,5.66708333 11.3329167,5.66708333 C11.1491667,5.66708333 10.9991667,5.815 10.9991667,6.00083333 L10.9991667,17 C10.9991667,17.18375 11.1491667,17.33375 11.3329167,17.33375 Z" id="Fill-3" fill="#000000" mask="url(#mask-2)"></path>
                    <path d="M15.6675,2.33375 L10.9845833,2.33375 C10.94875,1.91708333 10.8204167,1.21375 10.3808333,0.762916667 C10.1025,0.478333333 9.75083333,0.333333333 9.3325,0.333333333 L5.99916667,0.333333333 C5.5825,0.333333333 5.22958333,0.478333333 4.95291667,0.762916667 C4.51333333,1.21375 4.38458333,1.91708333 4.3475,2.33375 L0.33375,2.33375 C0.149583333,2.33375 0,2.48166667 0,2.6675 C0,2.85125 0.149583333,2.99916667 0.33375,2.99916667 L1.01416667,2.99916667 L1.65208333,18.34125 C1.665,18.9141667 2.02166667,19.9995833 3.28791667,19.9995833 L12.7116667,19.9995833 C13.9779167,19.9995833 14.3358333,18.9141667 14.3475,18.3475 L14.9870833,2.99916667 L15.6675,2.99916667 C15.85125,2.99916667 15.9991667,2.85125 15.9991667,2.6675 C15.9991667,2.48166667 15.85125,2.33375 15.6675,2.33375 Z M5.43125,1.22708333 C5.57958333,1.07375 5.76666667,1.00083333 5.99916667,1.00083333 L9.3325,1.00083333 C9.56708333,1.00083333 9.7525,1.07375 9.9025,1.22708333 C10.1708333,1.50208333 10.2783333,1.98375 10.3158333,2.33375 L5.01791667,2.33375 C5.05541667,1.98375 5.16291667,1.50208333 5.43125,1.22708333 Z M13.6816667,18.3266667 C13.68,18.4291667 13.6329167,19.3341667 12.7116667,19.3341667 L3.28791667,19.3341667 C2.37625,19.3341667 2.3225,18.4275 2.3175,18.32 L1.68125,2.99916667 L14.3195833,2.99916667 L13.6816667,18.3266667 Z" id="Fill-5" fill="#000000" mask="url(#mask-2)"></path>
                </g>
            </g>
        </g>
    </g>
</svg>