<?xml version="1.0" encoding="UTF-8"?>
<svg width="20px" height="16px" viewBox="0 0 20 16" version="1.1" xmlns="http://www.w3.org/2000/svg" xmlns:xlink="http://www.w3.org/1999/xlink">
    <!-- Generator: Sketch 49 (51002) - http://www.bohemiancoding.com/sketch -->
    <title>filter</title>
    <desc>Created with Sketch.</desc>
    <defs></defs>
    <g id="Layout" stroke="none" stroke-width="1" fill="none" fill-rule="evenodd">
        <g id="7.1.1_Servicos_frete" transform="translate(-298.000000, -32.000000)" fill="#989898" fill-rule="nonzero">
            <g id="filter" transform="translate(298.000000, 23.000000)">
                <path d="M19.6797266,9.13235867 L0.320273438,9.13235867 C0.143984375,9.13235867 0.001171875,9.27497076 0.001171875,9.45083821 L0.001171875,11.1494347 C0.001171875,11.2555166 0.0540625,11.3546199 0.142265625,11.4138012 L6.53636719,15.7021442 C6.73527344,15.8525146 6.91523437,16.2104483 6.91523437,16.4576608 L6.91523438,24.0275879 C6.91523438,24.2034943 7.05804687,24.2796631 7.23433594,24.2796631 L12.7655859,19.9610526 C12.941875,19.9610526 13.0846875,19.3451485 13.0846875,19.169281 L13.0846875,16.4576608 C13.0846875,16.2104873 13.2646094,15.8525146 13.4635547,15.7021442 L19.8577344,11.4138402 C19.9459375,11.3546979 19.9988281,11.2555556 19.9988281,11.1494737 L19.9988281,9.45087719 C19.9988281,9.27497076 19.8559766,9.13235867 19.6797266,9.13235867 Z M6.17066406,10.8309942 C5.994375,10.8309942 5.8515625,10.9736062 5.8515625,11.1494737 C5.8515625,11.3253411 5.99441406,11.4679532 6.17066406,11.4679532 L18.6326953,11.4679532 L13.1010547,15.1778558 C12.7229688,15.4561793 12.4466016,16.002807 12.4466016,16.4575828 L12.4466016,19.3239766 L7.55351562,23.2995605 L7.55351563,16.4575828 C7.55351563,16.002807 7.27710938,15.4561793 6.910625,15.1860039 C6.90807292,15.1841326 5.06029948,13.9447823 1.36730469,11.4679532 L4.89421875,11.4679532 C5.07050781,11.4679532 5.21332031,11.3253411 5.21332031,11.1494737 C5.21332031,10.9736062 5.07046875,10.8309942 4.89421875,10.8309942 L0.639375,10.8309942 L0.639375,9.76935673 L19.360625,9.76935673 L19.3605859,10.8309942 L6.17066406,10.8309942 Z" id="Shape"></path>
                <path d="M11.5821875,15.5021442 L8.41789063,15.5021442 C8.24160156,15.5021442 8.09878906,15.6447563 8.09878906,15.8206238 C8.09878906,15.9965302 8.24164063,16.1391033 8.41789063,16.1391033 L11.5821875,16.1391033 C11.7584766,16.1391033 11.9012891,15.9964912 11.9012891,15.8206238 C11.9013281,15.6447563 11.7584375,15.5021442 11.5821875,15.5021442 Z" id="Shape"></path>
            </g>
        </g>
    </g>
</svg>