<svg xmlns="http://www.w3.org/2000/svg" width="36.447" height="36.447"><path d="M30.22 3.95h-1.1v-1.2c0-1.52-1.2-2.75-2.66-2.75-1.48 0-2.67 1.23-2.67 2.75v1.2h-2.75v-1.2c0-1.52-1.2-2.75-2.67-2.75-1.48 0-2.67 1.23-2.67 2.75v1.2h-2.73v-1.2c0-1.52-1.2-2.75-2.67-2.75-1.48 0-2.67 1.23-2.67 2.75v1.2h-1.4c-2.35 0-4.26 1.9-4.26 4.25v24c0 2.34 1.9 4.25 4.25 4.25h24c2.35 0 4.25-1.9 4.25-4.25v-24c0-2.34-1.9-4.25-4.25-4.25zm-4.93-1.2c0-.7.5-1.25 1.16-1.25.64 0 1.17.56 1.17 1.25v4.9c0 .68-.53 1.25-1.17 1.25-.65 0-1.17-.56-1.17-1.25v-4.9zm-8.1 0c0-.7.53-1.25 1.18-1.25s1.17.56 1.17 1.25v4.9c0 .68-.53 1.25-1.17 1.25s-1.17-.56-1.17-1.25v-4.9zm-8.07 0c0-.7.52-1.25 1.16-1.25s1.16.56 1.16 1.25v4.9c0 .68-.52 1.25-1.17 1.25s-1.18-.56-1.18-1.25v-4.9zM31.96 32.2c0 .96-.78 1.75-1.75 1.75h-24c-.96 0-1.75-.8-1.75-1.75v-22h27.5v22zM6.72 14.63h4.6v4.08h-4.6zM12.86 14.63h4.6v4.08h-4.6zM19 14.63h4.6v4.08H19zM25.13 14.63h4.6v4.08h-4.6zM6.72 20.08h4.6v4.1h-4.6zM12.86 20.08h4.6v4.1h-4.6zM19 20.08h4.6v4.1H19zM25.13 20.08h4.6v4.1h-4.6zM6.72 25.54h4.6v4.1h-4.6zM12.86 25.54h4.6v4.1h-4.6zM19 25.54h4.6v4.1H19zM25.13 25.54h4.6v4.1h-4.6z"/></svg>