<svg xmlns="http://www.w3.org/2000/svg" width="25" height="21" xmlns:xlink="http://www.w3.org/1999/xlink"><title>credit-card (3)</title><desc>Created with Sketch.</desc><defs><path id="a" d="M0 .04h22.57V16.1H0z"/><path id="c" d="M.02.04h23.33v16.9H.02z"/></defs><g fill="none"><g><g><g><g><g><g transform="translate(0 0)"><mask id="b"><use xlink:href="#a"/></mask><path fill="#5487C5" d="M1.67.84c-.46 0-.83.36-.83.8V14.5c0 .43.37.8.83.8H20.9c.46 0 .83-.37.83-.8V1.64c0-.45-.37-.8-.83-.8H1.67zM20.9 16.1H1.67C.75 16.1 0 15.36 0 14.5V1.64C0 .75.75.05 1.67.05H20.9c.92 0 1.67.7 1.67 1.6V14.5c0 .87-.75 1.6-1.67 1.6z" mask="url(#b)"/><path fill="#5487C5" d="M.84 5.26h20.9v-2.4H.83v2.4zm21.3.8H.43c-.25 0-.42-.16-.42-.4v-3.2c0-.25.17-.4.42-.4h21.73c.25 0 .42.15.42.4v3.2c0 .24-.17.4-.42.4z" mask="url(#b)"/></g><path fill="#5487C5" d="M13.7 13.64h5.65v-3.08H13.7v3.08zm6.06.88H13.3c-.24 0-.4-.18-.4-.44v-3.96c0-.27.16-.44.4-.44h6.46c.24 0 .4.17.4.44v3.96c0 .26-.16.44-.4.44z"/><path fill="#5487C5" d="M5.24 8.87H2.02c-.25 0-.4-.16-.4-.4 0-.24.15-.4.4-.4h3.22c.24 0 .4.16.4.4 0 .24-.16.4-.4.4"/><path fill="#5487C5" d="M10.08 8.87H6.85c-.24 0-.4-.16-.4-.4 0-.24.16-.4.4-.4h3.23c.24 0 .4.16.4.4 0 .24-.16.4-.4.4"/><path fill="#5487C5" d="M7.63 10.48h-5.6c-.25 0-.42-.16-.42-.4 0-.24.18-.4.44-.4h5.6c.25 0 .42.16.42.4 0 .24-.17.4-.43.4"/><g transform="translate(1.613 3.226)"><mask id="d"><use xlink:href="#c"/></mask><path fill="#5487C5" d="M9.06 6.88H7.83c-.24 0-.4-.17-.4-.42 0-.25.16-.42.4-.42h1.23c.24 0 .4.17.4.42 0 .25-.16.42-.4.42" mask="url(#d)"/><path fill="#5487C5" d="M.85 13.17c.04.37.33.7.74.75l18.8 2.18c.45.04.86-.3.9-.76L22.52 1.9c.04-.2-.04-.46-.16-.63-.12-.17-.33-.3-.53-.3L20.9.9v10.6c0 .9-.74 1.67-1.64 1.67H.86zm19.63 3.77c-.04 0-.12 0-.16 0L1.46 14.76c-.9-.1-1.55-.92-1.42-1.85l.04-.2c0-.2.16-.37.36-.37 0 0 .04 0 .1 0h18.72c.45 0 .8-.38.8-.84V.42c0-.12.06-.25.14-.3.08-.08.2-.12.32-.08l1.35.17c.45.04.82.25 1.1.63.3.34.4.8.37 1.2L22.1 15.53c-.07.8-.8 1.44-1.62 1.44z" mask="url(#d)"/></g></g></g></g></g></g></g></svg>