<svg xmlns="http://www.w3.org/2000/svg" width="18" height="11" xmlns:xlink="http://www.w3.org/1999/xlink"><title>eye</title><desc>Created with Sketch.</desc><defs><path id="a" d="M0 0h18v11H0z"/></defs><g fill="none" opacity=".2"><g><g><g transform="translate(0 0)"><mask id="b"><use xlink:href="#a"/></mask><path fill="#000" d="M9 0C5.56 0 2.44 1.93.14 5.06c-.2.26-.2.62 0 .87C2.44 9.07 5.56 11 9 11c3.44 0 6.56-1.93 8.86-5.06.2-.26.2-.62 0-.87C15.56 1.93 12.44 0 9 0zm.25 9.37c-2.3.15-4.17-1.78-4.03-4.12.12-1.94 1.65-3.5 3.53-3.62 2.3-.15 4.17 1.78 4.03 4.12-.12 1.93-1.65 3.5-3.53 3.62zm-.12-1.8c-1.23.1-2.24-.95-2.16-2.2.06-1.05.88-1.9 1.9-1.96 1.23-.07 2.25.97 2.17 2.23-.07 1.05-.9 1.9-1.9 1.95z" mask="url(#b)"/></g></g></g></g></svg>