<svg xmlns="http://www.w3.org/2000/svg" width="42" height="40"><title>icon_favorito_off</title><desc>Created with Sketch.</desc><g fill="none"><g fill="#74ADF2"><g><path d="M40.8 17.82c.82-.8 1.1-1.95.75-3.03-.35-1.1-1.26-1.86-2.4-2.02l-10.02-1.44c-.43-.07-.8-.33-.98-.72l-4.5-9.02c-.5-1-1.5-1.65-2.65-1.65-1.14 0-2.16.64-2.66 1.65l-4.48 9.02c-.2.4-.56.66-1 .72l-10 1.44c-1.14.16-2.06.93-2.4 2-.36 1.1-.08 2.25.74 3.04l7.25 7.02c.3.3.45.73.38 1.15l-1.7 9.9c-.16.88.07 1.73.63 2.4.9 1.05 2.43 1.37 3.67.72l8.96-4.68c.37-.2.84-.2 1.2 0l8.98 4.68c.43.23.9.34 1.38.34.87 0 1.7-.38 2.28-1.06.56-.67.8-1.52.65-2.4L33.16 26c-.07-.43.07-.86.38-1.16l7.25-7.02z"/></g></g></g></svg>