<svg xmlns="http://www.w3.org/2000/svg" width="26" height="33"><g fill="none"><g fill="#C6CCD6"><g><path d="M17.87 5.02c1.25-1.33 2.1-3.18 1.87-5.02-1.8.06-4 1.05-5.3 2.38-1.16 1.18-2.17 3.06-1.9 4.86 2 .14 4.07-.9 5.33-2.22zm3.85 12.7c-.04-4.12 3.3-6.1 3.44-6.2-1.87-2.8-4.8-3.18-5.84-3.23-2.48-.27-4.85 1.5-6.1 1.5-1.27 0-3.2-1.47-5.28-1.43-2.7.04-5.2 1.6-6.6 4.08-2.82 5-.72 12.38 2.02 16.43C4.7 30.86 6.3 33.08 8.4 33c2.03-.08 2.8-1.34 5.23-1.34 2.45 0 3.13 1.34 5.27 1.3 2.18-.04 3.56-2.02 4.9-4 1.53-2.3 2.16-4.53 2.2-4.64-.05-.03-4.24-1.66-4.28-6.6z"/></g></g></g></svg>