<svg xmlns="http://www.w3.org/2000/svg" width="29" height="35"><g fill="none"><g><g><g><path d="M23.28 12.02H5.74c-.4 0-.7.32-.7.7v14.6c0 .38.3.7.7.7h3.12v4.9c0 1.15.94 2.08 2.1 2.08 1.14 0 2.07-.92 2.07-2.07v-4.9h2.9v4.9c0 1.14.95 2.07 2.1 2.07 1.15 0 2.08-.92 2.08-2.07v-4.9h3.18c.4 0 .7-.33.7-.7v-14.6c0-.4-.3-.7-.7-.7"/><path d="M2 12c-1.1 0-2 .96-2 2.14v8.72C0 24.04.9 25 2 25s2-.96 2-2.14v-8.72C4 12.96 3.1 12 2 12"/><path d="M26.84 11.4c-1.15 0-2.08.92-2.08 2.06v8.4c0 1.14.93 2.06 2.08 2.06 1.16 0 2.1-.92 2.1-2.07v-8.4c0-1.13-.94-2.05-2.1-2.05"/><path d="M10 5.65c.44 0 .8.36.8.8 0 .44-.36.8-.8.8-.45 0-.8-.36-.8-.8 0-.44.35-.8.8-.8zm9.5.8c0 .44-.37.8-.8.8-.45 0-.8-.36-.8-.8 0-.44.35-.8.8-.8.43 0 .8.36.8.8zM5.7 10.37h17.27c.45 0 .8-.4.7-.84-.57-2.7-2.3-4.96-4.66-6.28L20.5.62c.1-.18.02-.4-.16-.5-.18-.1-.4-.04-.5.14l-1.5 2.66c-1.2-.56-2.57-.87-4-.87-1.43 0-2.78.3-4 .87L8.84.26c-.1-.18-.32-.24-.5-.14-.18.1-.24.32-.14.5l1.47 2.63C7.32 4.57 5.6 6.85 5.02 9.53c-.1.43.24.84.7.84z"/></g></g></g></g></svg>