<?xml version="1.0" encoding="UTF-8"?>
<svg width="20px" height="20px" viewBox="0 0 20 20" version="1.1" xmlns="http://www.w3.org/2000/svg" xmlns:xlink="http://www.w3.org/1999/xlink">
    <!-- Generator: sketchtool 51.2 (57519) - http://www.bohemiancoding.com/sketch -->
    <title>A7A90779-51A2-4A3C-8FC0-B19892F88DE8</title>
    <desc>Created with sketchtool.</desc>
    <defs></defs>
    <g id="Cartão" stroke="none" stroke-width="1" fill="none" fill-rule="evenodd">
        <g id="Footer_v1" transform="translate(-1012.000000, -159.000000)" fill-rule="nonzero">
            <g id="info" transform="translate(136.000000, 122.000000)">
                <g id="menu" transform="translate(0.000000, 37.000000)">
                    <g id="001-facebook" transform="translate(876.000000, 0.000000)">
                        <g id="Group">
                            <path d="M17.5,0 L2.5,0 C1.12125,0 0,1.12125 0,2.5 L0,17.5 C0,18.87875 1.12125,20 2.5,20 L17.5,20 C18.87875,20 20,18.87875 20,17.5 L20,2.5 C20,1.12125 18.87875,0 17.5,0 Z" id="Shape" fill="#FFFFFF"></path>
                            <path d="M16.875,10 L13.75,10 L13.75,7.5 C13.75,6.81 14.31,6.875 15,6.875 L16.25,6.875 L16.25,3.75 L13.75,3.75 C11.67875,3.75 10,5.42875 10,7.5 L10,10 L7.5,10 L7.5,13.125 L10,13.125 L10,20 L13.75,20 L13.75,13.125 L15.625,13.125 L16.875,10 Z" id="Shape" fill="#134E84"></path>
                        </g>
                    </g>
                </g>
            </g>
        </g>
    </g>
</svg>