<?xml version="1.0" encoding="UTF-8"?>
<svg width="20px" height="13px" viewBox="0 0 20 13" version="1.1" xmlns="http://www.w3.org/2000/svg" xmlns:xlink="http://www.w3.org/1999/xlink">
    <!-- Generator: sketchtool 51.2 (57519) - http://www.bohemiancoding.com/sketch -->
    <title>02C42903-F9E8-4599-AF46-6F3A378F5A02</title>
    <desc>Created with sketchtool.</desc>
    <defs></defs>
    <g id="Classificados" stroke="none" stroke-width="1" fill="none" fill-rule="evenodd">
        <g id="1.0.0_anuncio" transform="translate(-956.000000, -189.000000)" fill="#20649A">
            <g id="views-e-favoritos" transform="translate(956.000000, 183.000000)">
                <path d="M9.96150943,7.20716981 C12.5086792,7.20716981 14.6637736,8.36867925 16.0230189,9.34150943 C17.6339623,10.4958491 18.4641509,11.6116981 18.6777358,12.0377358 C18.4626415,12.4637736 17.6339623,13.5796226 16.0230189,14.7339623 C14.6637736,15.7067925 12.5086792,16.8683019 9.96150943,16.8683019 C7.41584906,16.8683019 5.26075472,15.7067925 3.90037736,14.7339623 C2.2890566,13.5796226 1.46075472,12.4637736 1.24566038,12.0377358 C1.46075472,11.6116981 2.2890566,10.4958491 3.90037736,9.34150943 C5.26075472,8.36867925 7.41584906,7.20716981 9.96150943,7.20716981 Z M9.96150943,6 C4.46037736,6 0,10.830566 0,12.0377358 C0,13.2449057 4.46037736,18.0754717 9.96150943,18.0754717 C15.4641509,18.0754717 19.9249057,13.2449057 19.9249057,12.0377358 C19.9249057,10.830566 15.4641509,6 9.96150943,6 Z M9.96150943,8.41433962 C7.96150943,8.41433962 6.34,10.0373585 6.34,12.0377358 C6.34,14.0381132 7.96150943,15.6611321 9.96150943,15.6611321 C11.9633962,15.6611321 13.5849057,14.0381132 13.5849057,12.0377358 C13.5849057,10.0373585 11.9633962,8.41433962 9.96150943,8.41433962 Z M8.98716981,12.0377358 C8.13962264,12.0377358 7.45433962,11.3509434 7.45433962,10.5049057 C7.45433962,9.65849057 8.13962264,8.97169811 8.98716981,8.97169811 C9.83358491,8.97169811 10.5188679,9.65849057 10.5188679,10.5049057 C10.5188679,11.3509434 9.83358491,12.0377358 8.98716981,12.0377358 Z" id="view-eye-interface-symbol"></path>
            </g>
        </g>
    </g>
</svg>