<?xml version="1.0" encoding="UTF-8"?>
<svg width="21px" height="21px" viewBox="0 0 21 21" version="1.1" xmlns="http://www.w3.org/2000/svg" xmlns:xlink="http://www.w3.org/1999/xlink">
    <!-- Generator: sketchtool 51.2 (57519) - http://www.bohemiancoding.com/sketch -->
    <title>5424C5FC-1201-4B6A-B6B2-6FA15F04387A</title>
    <desc>Created with sketchtool.</desc>
    <defs></defs>
    <g id="Symbol" stroke="none" stroke-width="1" fill="none" fill-rule="evenodd">
        <g id="Component/Menu_perfil" transform="translate(-19.000000, -464.000000)" fill="#7EA5D4" fill-rule="nonzero">
            <g id="telephone" transform="translate(19.000000, 464.000000)">
                <path d="M17.9197696,3.07654321 C15.9368443,1.09320988 13.301584,0 10.49784,0 C7.69409587,0 5.05883563,1.09320988 3.07591031,3.07654321 C1.09298498,5.05987654 0,7.69567901 0,10.5 C0,13.304321 1.09298498,15.9401235 3.07591031,17.9234568 C5.05883563,19.9067901 7.69409587,21 10.49784,21 C12.1265172,21 13.6126311,20.6975309 14.7920181,20.1314815 C15.9109237,19.591358 16.7231022,18.8179012 17.0816704,17.9580247 C17.5093602,16.9253086 17.2674347,15.8493827 16.4206953,15.0024691 L16.3904546,14.9722222 C16.4034149,14.9549383 16.4206953,14.9419753 16.4336556,14.9290123 C17.0384695,14.2938272 17.0384695,13.4598765 16.4250154,12.8462963 L14.9302613,11.3512346 C14.6364945,11.0487654 14.2822465,10.8845679 13.9063979,10.8845679 C13.5305493,10.8845679 13.1719811,11.0444444 12.8695742,11.3469136 L12.0919564,12.1246914 C12.0530755,12.1030864 12.0185147,12.0858025 11.9796338,12.0685185 C11.8845916,12.0209877 11.7981897,11.9777778 11.724748,11.9302469 C10.9341699,11.4290123 10.2170335,10.7722222 9.53013783,9.92962963 C9.22773092,9.54938272 9.02036618,9.22530864 8.86484262,8.90555556 C9.05924707,8.72407407 9.24069122,8.5382716 9.41781526,8.35679012 C9.49125694,8.27901235 9.56901872,8.20555556 9.6467805,8.12777778 C10.281835,7.49259259 10.281835,6.67160494 9.6467805,6.03641975 L8.90804361,5.29753086 C8.82164164,5.21111111 8.73955976,5.12901235 8.65747789,5.04259259 C8.49331413,4.87407407 8.32483028,4.70123457 8.14338613,4.53271605 C7.84961942,4.24320988 7.49969142,4.09197531 7.12816293,4.09197531 C6.75663444,4.09197531 6.40238634,4.24320988 6.09997943,4.53271605 C6.09565933,4.53703704 6.09565933,4.53703704 6.09133923,4.54135802 L5.162518,5.47037037 C4.79098951,5.84197531 4.57498457,6.3 4.53178358,6.82716049 C4.4669821,7.64814815 4.70458753,8.40864198 4.89035178,8.90555556 C5.33532195,10.1067901 6.00061716,11.2216049 6.98991977,12.4141975 C8.19090722,13.8487654 9.6381403,14.9851852 11.2927381,15.7845679 C11.9277926,16.087037 12.7788521,16.441358 13.737914,16.5061728 C13.7983954,16.5104938 13.8588768,16.5104938 13.9193582,16.5104938 C14.5889735,16.5104938 15.1549064,16.2685185 15.5955565,15.7888889 C15.5998766,15.7845679 15.6085168,15.7759259 15.6128369,15.7716049 C15.6257972,15.754321 15.6430776,15.737037 15.660358,15.7197531 L15.6862785,15.745679 C16.2392512,16.2987654 16.3904546,16.9296296 16.1226085,17.5734568 C15.6257972,18.7530864 13.694713,19.962963 10.49784,19.962963 C5.27916067,19.962963 1.0368237,15.7197531 1.0368237,10.5 C1.0368237,5.28024691 5.27916067,1.03703704 10.49784,1.03703704 C15.7165192,1.03703704 19.9588562,5.28024691 19.9588562,10.5 C19.9588562,11.3598765 19.8422135,12.2067901 19.6175684,13.0234568 C19.5398066,13.3 19.7039704,13.5851852 19.9804567,13.662963 C20.256943,13.7407407 20.5420695,13.5765432 20.6198313,13.3 C20.870397,12.3925926 21,11.4506173 21,10.5 C20.9956799,7.69567901 19.9026949,5.05987654 17.9197696,3.07654321 Z M14.8265789,15.0845679 C14.5803333,15.3481481 14.3038469,15.4648148 13.9193582,15.4648148 C13.8804773,15.4648148 13.8415964,15.4648148 13.8027155,15.4604938 C13.0250977,15.408642 12.2906809,15.1018519 11.7420284,14.8382716 C10.2256737,14.1037037 8.89508332,13.0623457 7.78913804,11.7401235 C6.8775972,10.6425926 6.26846328,9.62716049 5.862374,8.5382716 C5.62044847,7.88148148 5.52972639,7.38024691 5.56428718,6.90493827 C5.59020778,6.62407407 5.69389015,6.39506173 5.89693479,6.1962963 L6.82575602,5.27160494 C6.8991977,5.20246914 7.01152026,5.12037037 7.13248303,5.12037037 C7.25344579,5.12037037 7.35712816,5.19814815 7.42192964,5.26728395 C7.42624974,5.27160494 7.43056984,5.27592593 7.43488994,5.28024691 C7.59905369,5.43148148 7.75457725,5.59135802 7.918741,5.75987654 C8.00514297,5.8462963 8.09154495,5.93703704 8.17794692,6.02345679 L8.91668381,6.76234568 C9.14564904,6.99135802 9.14564904,7.15987654 8.91668381,7.38888889 C8.83892203,7.46666667 8.76116026,7.54444444 8.68339848,7.62222222 C8.45443324,7.85123457 8.24274841,8.07160494 8.00946307,8.27901235 C8.00082288,8.28333333 7.99650278,8.29197531 7.98786258,8.30061728 C7.66385517,8.62469136 7.77617774,8.9617284 7.81073853,9.07407407 C7.81505863,9.08703704 7.81937873,9.09567901 7.82369883,9.10864198 C8.02242337,9.5882716 8.29890969,10.0376543 8.72227937,10.5734568 L8.72659947,10.5777778 C9.48693684,11.5154321 10.2861551,12.241358 11.1717754,12.8030864 C11.288418,12.8765432 11.4050607,12.937037 11.5173833,12.9932099 C11.6124254,13.0407407 11.6988274,13.0839506 11.7722691,13.1314815 C11.7852294,13.1401235 11.8025098,13.1487654 11.8197902,13.1574074 C11.9321127,13.2135802 12.0444353,13.2395062 12.1567579,13.2395062 C12.3468422,13.2395062 12.5239663,13.1617284 12.6751697,13.0061728 L13.6039909,12.0771605 C13.6774326,12.0037037 13.7854351,11.917284 13.9063979,11.917284 C14.0187204,11.917284 14.1224028,11.9993827 14.1872043,12.0685185 C14.1915244,12.0728395 14.1915244,12.0728395 14.1958445,12.0771605 L15.6905986,13.5722222 C15.9022835,13.7839506 15.9022835,13.9783951 15.6819584,14.2074074 L15.6776383,14.2117284 C15.5782761,14.3197531 15.4702736,14.4234568 15.3536309,14.5358025 C15.180827,14.704321 14.9993828,14.8814815 14.8265789,15.0845679 Z" id="Shape"></path>
            </g>
        </g>
    </g>
</svg>