<svg xmlns="http://www.w3.org/2000/svg" width="127" height="116" xmlns:xlink="http://www.w3.org/1999/xlink"><defs><path id="b" d="M31.9 55.47h29.27v4.05h-21.3c-.63-1.75-2.3-3-4.27-3-1.93 0-3.6 1.22-4.24 2.92-.8-.23-1.4-.98-1.4-1.86v-.17c0-1.06.86-1.93 1.93-1.93zm6.93 5.15c0 1.86-1.5 3.38-3.38 3.38-1.87 0-3.38-1.52-3.38-3.38 0-1.87 1.5-3.4 3.38-3.4 1.87 0 3.38 1.53 3.38 3.4zm-1.03 0c0-1.3-1.06-2.35-2.35-2.35-1.3 0-2.35 1.05-2.35 2.35s1.05 2.35 2.35 2.35 2.35-1.06 2.35-2.35zm-9.8-6.3h33.17V36H28v18.3z"/><filter id="a" width="525.1%" height="603.6%" x="-212.5%" y="-251.8%" filterUnits="objectBoundingBox"><feOffset in="SourceAlpha" result="shadowOffsetOuter1"/><feGaussianBlur stdDeviation="23.5" in="shadowOffsetOuter1" result="shadowBlurOuter1"/><feColorMatrix values="0 0 0 0 0.564705882 0 0 0 0 0.607843137 0 0 0 0 0.68627451 0 0 0 1 0" in="shadowBlurOuter1"/></filter><path id="d" d="M71.9 55.47H59.96v4.05h3.96c.64-1.75 2.3-3 4.28-3 1.93 0 3.58 1.22 4.24 2.92.8-.23 1.4-.98 1.4-1.86v-.17c0-1.06-.87-1.93-1.94-1.93z"/><filter id="c" width="1115.7%" height="3582.1%" x="-507.8%" y="-1741%" filterUnits="objectBoundingBox"><feOffset in="SourceAlpha" result="shadowOffsetOuter1"/><feGaussianBlur stdDeviation="23.5" in="shadowOffsetOuter1" result="shadowBlurOuter1"/><feColorMatrix values="0 0 0 0 0.564705882 0 0 0 0 0.607843137 0 0 0 0 0.68627451 0 0 0 1 0" in="shadowBlurOuter1"/></filter></defs><g fill="none"><g><g><g><g><g transform="translate(17.333 10)"><use fill="#000" filter="url(#a)" xlink:href="#b"/><use fill="#fff" xlink:href="#b"/></g><g transform="translate(17.333 10)"><use fill="#000" filter="url(#c)" xlink:href="#d"/><use fill="#fff" xlink:href="#d"/></g></g></g></g></g></g></svg>