<svg xmlns="http://www.w3.org/2000/svg" width="139" height="116" xmlns:xlink="http://www.w3.org/1999/xlink"><defs><path id="b" d="M4.56 19.47H21.2l-.68 2.02.67 2.02h-8.65c-.64-1.75-2.3-3-4.28-3-1.93 0-3.6 1.22-4.24 2.92-.8-.23-1.4-.98-1.4-1.86v-.17c0-1.06.86-1.93 1.93-1.93zm6.95 5.15C11.5 26.48 10 28 8.13 28c-1.87 0-3.38-1.52-3.38-3.38 0-1.87 1.5-3.4 3.38-3.4 1.87 0 3.4 1.53 3.4 3.4zm-1.03 0c0-1.3-1.05-2.35-2.35-2.35s-2.35 1.05-2.35 2.35 1.06 2.35 2.35 2.35c1.3 0 2.35-1.06 2.35-2.35zm35.26 0c0 1.86-1.52 3.38-3.4 3.38-1.85 0-3.37-1.52-3.37-3.38 0-1.87 1.52-3.4 3.38-3.4 1.87 0 3.4 1.53 3.4 3.4zm-1.04 0c0 1.3-1.06 2.35-2.36 2.35-1.3 0-2.35-1.06-2.35-2.35 0-1.3 1.05-2.35 2.34-2.35 1.3 0 2.35 1.05 2.35 2.35zm5.97-9.72v7.65c0 .36-.3.65-.65.65h-3.38c-.72-1.58-2.3-2.68-4.15-2.68-1.85 0-3.43 1.1-4.15 2.68h-2.28c-.36 0-.65-.3-.65-.65V7.2c0-.37.3-.66.65-.66h8.52c.34 0 .88.12 1.28.65l4.8 7.7zm-3.02-1.68l-2.9-4.82c-.24-.42-.5-.65-1.5-.65h-5.3c-.34 0-.63.3-.63.65v4.82c0 .36.3.65.64.65H47c.36 0 .65-.3.65-.65zm2.52 7.35c0-.34-.27-.6-.6-.6-.34 0-.6.26-.6.6v1.14c0 .34.26.6.6.6.33 0 .6-.26.6-.6v-1.13zM.67 18.3h33.2V0H.67v18.3z"/><filter id="a" width="382%" height="603.6%" x="-141%" y="-251.8%" filterUnits="objectBoundingBox"><feOffset in="SourceAlpha" result="shadowOffsetOuter1"/><feGaussianBlur stdDeviation="23.5" in="shadowOffsetOuter1" result="shadowBlurOuter1"/><feColorMatrix values="0 0 0 0 0.564705882 0 0 0 0 0.607843137 0 0 0 0 0.68627451 0 0 0 1 0" in="shadowBlurOuter1"/></filter><path id="d" d="M23.9 19.47h11.96v4.05h-3.98c-.63-1.75-2.3-3-4.27-3-1.93 0-3.58 1.22-4.24 2.92-.8-.23-1.4-.98-1.4-1.86v-.17c0-1.06.87-1.93 1.94-1.93z"/><filter id="c" width="1114.5%" height="3582.1%" x="-507.3%" y="-1741%" filterUnits="objectBoundingBox"><feOffset in="SourceAlpha" result="shadowOffsetOuter1"/><feGaussianBlur stdDeviation="23.5" in="shadowOffsetOuter1" result="shadowBlurOuter1"/><feColorMatrix values="0 0 0 0 0.564705882 0 0 0 0 0.607843137 0 0 0 0 0.68627451 0 0 0 1 0" in="shadowBlurOuter1"/></filter><path id="f" d="M30.84 24.62c0 1.86-1.52 3.38-3.4 3.38-1.85 0-3.37-1.52-3.37-3.38 0-1.87 1.52-3.4 3.38-3.4 1.87 0 3.4 1.53 3.4 3.4zm-1.03 0c0-1.3-1.05-2.35-2.35-2.35s-2.34 1.05-2.34 2.35 1.06 2.35 2.35 2.35c1.3 0 2.36-1.06 2.36-2.35z"/><filter id="e" width="2182.3%" height="2184.2%" x="-1041.2%" y="-1042.1%" filterUnits="objectBoundingBox"><feOffset in="SourceAlpha" result="shadowOffsetOuter1"/><feGaussianBlur stdDeviation="23.5" in="shadowOffsetOuter1" result="shadowBlurOuter1"/><feColorMatrix values="0 0 0 0 0.564705882 0 0 0 0 0.607843137 0 0 0 0 0.68627451 0 0 0 1 0" in="shadowBlurOuter1"/></filter></defs><g fill="none"><g><g><g><g><g><g transform="translate(44.667 46)"><use fill="#000" filter="url(#a)" xlink:href="#b"/><use fill="#fff" xlink:href="#b"/></g><g transform="translate(44.667 46)"><use fill="#000" filter="url(#c)" xlink:href="#d"/><use fill="#fff" xlink:href="#d"/></g><g transform="translate(44.667 46)"><use fill="#000" filter="url(#e)" xlink:href="#f"/><use fill="#fff" xlink:href="#f"/></g></g></g></g></g></g></g></svg>