<svg xmlns="http://www.w3.org/2000/svg" width="19" height="18"><g fill="none"><g fill="#C6CCD6"><g><g><path d="M10 10c2.76 0 5-2.24 5-5 0-2.77-2.24-5-5-5S5 2.24 5 5c0 2.74 2.24 5 5 5zm0-8.7c2.02 0 3.68 1.66 3.68 3.7 0 2.02-1.66 3.68-3.68 3.68-2.02 0-3.68-1.66-3.68-3.7 0-2.02 1.66-3.67 3.68-3.67z"/><path d="M.67 18h17.66c.37 0 .67-.3.67-.67 0-3.48-2.85-6.33-6.38-6.33H6.38C2.88 11 0 13.83 0 17.33c0 .38.3.67.67.67zm5.7-5.67h6.25c2.56 0 4.66 1.9 5 4.34H1.38c.32-2.43 2.42-4.34 4.98-4.34z"/></g></g></g></g></svg>