<?xml version="1.0" encoding="UTF-8"?>
<svg width="12px" height="14px" viewBox="0 0 12 14" version="1.1" xmlns="http://www.w3.org/2000/svg" xmlns:xlink="http://www.w3.org/1999/xlink">
    <!-- Generator: Sketch 49 (51002) - http://www.bohemiancoding.com/sketch -->
    <title>info</title>
    <desc>Created with Sketch.</desc>
    <defs></defs>
    <g id="Layout" stroke="none" stroke-width="1" fill="none" fill-rule="evenodd">
        <g id="3.1.0_Servicos" transform="translate(-200.000000, -373.000000)" fill="#C6CCD6">
            <g id="thumb" transform="translate(130.000000, 252.000000)">
                <g id="info" transform="translate(70.000000, 121.000000)">
                    <g id="icon-peso" transform="translate(0.000000, 0.000000)">
                        <path d="M11.8880404,12.1565247 C11.7913939,11.8263488 10.2077576,5.94003704 9.99187879,5.13937346 C9.77862626,4.33870988 9.21660606,4.12485185 8.58472727,4.12485185 L6.52468687,4.12485185 L6.52468687,3.38521605 C10.3574545,3.03052469 11.3769697,0.208641975 11.3769697,0.208641975 L0.30779798,0.208641975 C0.30779798,0.208641975 1.16343434,3.1896142 5.26092929,3.4013858 L5.26092929,4.12485185 L3.35478788,4.12485185 C2.72290909,4.12485185 2.16246465,4.33870988 1.94711111,5.13937346 C1.73175758,5.94003704 0.14759596,11.8263488 0.0514747475,12.1565247 C-0.0698585859,12.5701574 -0.0325656566,13.1100185 0.814666667,13.1100185 L1.41975758,13.1100185 L1.41975758,13.5627716 L10.4168081,13.5627716 L10.4168081,13.1100185 L11.1248485,13.1100185 C11.9720808,13.1100185 12.0088485,12.5701574 11.8880404,12.1565247 Z M5.97054545,4.88900309 C8.04476768,4.88900309 9.72557576,6.55761728 9.72557576,8.61743519 C9.72557576,10.6772531 8.04476768,12.3463889 5.97054545,12.3463889 C3.89632323,12.3463889 2.2160404,10.6772531 2.2160404,8.61743519 C2.2160404,6.55761728 3.89632323,4.88900309 5.97054545,4.88900309 Z" id="Fill-1"></path>
                        <path d="M3.87675758,7.00932716 L3.44243939,6.70418827 L3.31539394,6.88316397 L3.74262121,7.18360841 C3.78221212,7.12140702 3.83066667,7.06859452 3.87675758,7.00932716 Z" id="Fill-3"></path>
                        <path d="M4.92332323,6.19255903 L4.68577778,5.71783333 L4.48723232,5.81641667 L4.72950505,6.29818403 C4.79391414,6.2635625 4.85655051,6.22483333 4.92332323,6.19255903 Z" id="Fill-4"></path>
                        <path d="M3.30298485,8.62532446 C3.30298485,8.60009182 3.31007576,8.5772064 3.31007576,8.55432099 L2.77175758,8.55432099 L2.77175758,8.77202585 L3.31657576,8.77202585 C3.31421212,8.72156057 3.30298485,8.67578974 3.30298485,8.62532446 Z" id="Fill-5"></path>
                        <path d="M8.92088889,7.21275309 L8.82575147,7.02028086 L8.3299798,7.3201385 C8.3632779,7.38233989 8.39604745,7.4463017 8.42511722,7.51085031 L8.92088889,7.21275309 Z" id="Fill-6"></path>
                        <path d="M7.83151515,5.94328623 L7.64183333,5.83623765 L7.33515152,6.31991788 C7.39956061,6.3552271 7.46692424,6.38381075 7.5289697,6.42304321 L7.83151515,5.94328623 Z" id="Fill-7"></path>
                        <path d="M6.1409899,5.98626427 L6.1409899,5.42469136 L5.92117172,5.42469136 L5.92117172,5.97452816 C5.94008081,5.97452816 5.95839899,5.97042052 5.97435354,5.97042052 C6.03226263,5.97042052 6.08544444,5.98391705 6.1409899,5.98626427 Z" id="Fill-8"></path>
                        <path d="M7.60460606,11.4966944 L7.30915152,10.9730031 C7.24710606,11.0053426 7.18210606,11.0402901 7.11769697,11.0663704 L7.40606061,11.5822377 L7.60460606,11.4966944 Z" id="Fill-9"></path>
                        <path d="M8.72391919,10.4808688 L8.24593939,10.102966 C8.21127273,10.1645806 8.16610101,10.2173931 8.12723232,10.2749001 L8.60941414,10.6598445 L8.72391919,10.4808688 Z" id="Fill-10"></path>
                        <path d="M8.69782692,8.62558526 C8.69782692,8.67605054 8.68717991,8.72182137 8.68505051,8.77228665 L9.2759596,8.77228665 L9.2759596,8.55223457 L8.69143871,8.55223457 C8.69143871,8.57746721 8.69782692,8.60035262 8.69782692,8.62558526 Z" id="Fill-11"></path>
                        <path d="M5.92117172,11.3197234 L5.92117172,11.8957222 L6.1409899,11.8957222 L6.1409899,11.3089167 C6.08544444,11.3132394 6.03226263,11.3240461 5.97435354,11.3240461 C5.95839899,11.3256671 5.94008081,11.3197234 5.92117172,11.3197234 Z" id="Fill-12"></path>
                        <path d="M3.60987184,9.86667901 L3.12052525,10.1371964 L3.22439599,10.3296686 L3.71143434,10.0591512 C3.67507958,9.99694985 3.64161012,9.93298804 3.60987184,9.86667901 Z" id="Fill-13"></path>
                        <path d="M4.76482828,11.0087949 C4.69805556,10.9767471 4.63305556,10.946357 4.5710101,10.9098889 L4.26137374,11.3911579 L4.45105556,11.4966944 L4.76482828,11.0087949 Z" id="Fill-14"></path>
                        <path d="M4.81971717,10.5124259 L5.07025646,10.5979691 L6.62810799,9.02898148 C6.69225992,9.03732716 6.75294417,9.05141049 6.8170961,9.05141049 C7.36585515,9.05141049 7.80971714,8.78434877 7.80971714,8.45625926 C7.80971714,8.12660494 7.36585515,7.85954321 6.8170961,7.85954321 C6.27267163,7.85954321 5.82880965,8.12660494 5.82880965,8.45625926 C5.82880965,8.64403704 5.98485488,8.80469136 6.21112046,8.91475 L4.81971717,10.5124259 Z M6.82056377,8.28517284 C6.976609,8.28517284 7.10491285,8.36289198 7.10491285,8.45625926 C7.10491285,8.55014815 6.976609,8.62786728 6.82056377,8.62786728 C6.66191779,8.62786728 6.53621469,8.55014815 6.53621469,8.45625926 C6.53621469,8.36289198 6.66191779,8.28517284 6.82056377,8.28517284 Z" id="Fill-15"></path>
                    </g>
                </g>
            </g>
        </g>
    </g>
</svg>