<svg xmlns="http://www.w3.org/2000/svg" width="124" height="113" xmlns:xlink="http://www.w3.org/1999/xlink"><defs><path id="b" d="M33.36 24.8c0 2.5-2.04 4.53-4.55 4.53-2.5 0-4.54-2.04-4.54-4.54 0-2.52 2.04-4.56 4.55-4.56 2.52 0 4.56 2.04 4.56 4.55zm-1.4 0c0 1.73-1.4 3.14-3.15 3.14-1.73 0-3.15-1.4-3.15-3.15s1.42-3.17 3.16-3.17c1.75 0 3.17 1.42 3.17 3.16zM40 11.72V22c0 .5-.4.88-.87.88h-4.55c-.96-2.12-3.1-3.6-5.57-3.6-2.46 0-4.6 1.48-5.56 3.6h-3.06c-.48 0-.87-.4-.87-.87V1.37c0-.48.4-.87.88-.87h11.45c.48 0 1.2.15 1.73.86L40 11.73zm-4.06-2.26l-3.9-6.5c-.3-.55-.68-.86-2-.86h-7.1c-.5 0-.88.4-.88.88v6.5c0 .47.4.86.87.86h12.14c.48 0 .87-.4.87-.87zm3.4 9.87v1.54c0 .44-.37.8-.82.8-.45 0-.8-.36-.8-.8v-1.54c0-.44.35-.8.8-.8.45 0 .8.36.8.8zM2.67 17.2h16.08v5.44h-5.34c-.86-2.34-3.1-4.02-5.75-4.02-2.6 0-4.82 1.63-5.7 3.92-1.1-.3-1.9-1.32-1.9-2.5v-.23c0-1.43 1.17-2.6 2.6-2.6zm9.34 6.92c0 2.5-2.04 4.55-4.55 4.55-2.5 0-4.55-2.04-4.55-4.55 0-2.5 2.04-4.55 4.55-4.55 2.5 0 4.55 2.04 4.55 4.55zm-1.4 0c0-1.74-1.4-3.16-3.15-3.16S4.3 22.38 4.3 24.12c0 1.74 1.42 3.16 3.17 3.16 1.74 0 3.16-1.42 3.16-3.16z"/><filter id="a" width="453.2%" height="588.8%" x="-176.6%" y="-244.4%" filterUnits="objectBoundingBox"><feOffset in="SourceAlpha" result="shadowOffsetOuter1"/><feGaussianBlur stdDeviation="23.5" in="shadowOffsetOuter1" result="shadowBlurOuter1"/><feColorMatrix values="0 0 0 0 0.564705882 0 0 0 0 0.607843137 0 0 0 0 0.68627451 0 0 0 1 0" in="shadowBlurOuter1"/></filter></defs><g fill="none"><g><g><g><g><g><g transform="translate(40 42.333)"><use fill="#000" filter="url(#a)" xlink:href="#b"/><use fill="#fff" xlink:href="#b"/></g></g></g></g></g></g></g></svg>