<?xml version="1.0" encoding="UTF-8"?>
<svg width="14px" height="20px" viewBox="0 0 14 20" version="1.1" xmlns="http://www.w3.org/2000/svg" xmlns:xlink="http://www.w3.org/1999/xlink">
    <!-- Generator: Sketch 49 (51002) - http://www.bohemiancoding.com/sketch -->
    <title>placeholder</title>
    <desc>Created with Sketch.</desc>
    <defs></defs>
    <g id="Cartão" stroke="none" stroke-width="1" fill="none" fill-rule="evenodd">
        <g id="24.1.0_Cartão" transform="translate(-779.000000, -1072.000000)" fill="#C6CCD6">
            <g id="Conteúdo" transform="translate(269.000000, 297.000000)">
                <g id="meus-dados" transform="translate(505.000000, 241.000000)">
                    <g id="endereço" transform="translate(0.000000, 534.000000)">
                        <path d="M16.8280675,2.528 C15.5192933,1.24133333 13.7796804,0.531111111 11.9294224,0.531111111 C10.0769062,0.531111111 8.33774496,1.24133333 7.02851915,2.528 C4.6083256,4.91155556 4.30664818,9.39422222 6.37774496,12.1111111 L11.9294224,20 L17.4702611,12.1217778 C19.5503901,9.39422222 19.2487127,4.91155556 16.8280675,2.528 Z M11.9926482,9.776 C10.5976159,9.776 9.46316431,8.65955556 9.46316431,7.28666667 C9.46316431,5.91511111 10.5976159,4.79866667 11.9926482,4.79866667 C13.3863256,4.79866667 14.5207772,5.91511111 14.5207772,7.28666667 C14.5207772,8.65955556 13.3863256,9.776 11.9926482,9.776 Z" id="placeholder"></path>
                    </g>
                </g>
            </g>
        </g>
    </g>
</svg>