<svg xmlns="http://www.w3.org/2000/svg" width="140" height="116" xmlns:xlink="http://www.w3.org/1999/xlink"><title>bus-side-view</title><desc>Created with Sketch.</desc><defs><path id="b" d="M809.4 673.66c-2.16 0-3.9 1.75-3.9 3.9 0 2.16 1.74 3.9 3.9 3.9 2.14 0 3.9-1.74 3.9-3.9 0-2.14-1.76-3.9-3.9-3.9zm0 6.35c-1.36 0-2.46-1.08-2.46-2.44 0-1.35 1.1-2.45 2.45-2.45 1.34 0 2.44 1.1 2.44 2.46 0 1.35-1.1 2.45-2.45 2.45zm31.28-6.34c-2.15 0-3.9 1.75-3.9 3.9 0 2.16 1.74 3.9 3.9 3.9 2.15 0 3.9-1.74 3.9-3.9 0-2.14-1.75-3.9-3.9-3.9zm0 6.35c-1.36 0-2.46-1.08-2.46-2.44 0-1.35 1.1-2.45 2.46-2.45 1.35 0 2.45 1.1 2.45 2.46 0 1.35-1.1 2.45-2.45 2.45zm7.8-7.54h1.44v-12.92c0-2.3-1.85-4.14-4.14-4.14h-41.64c-2.3 0-4.14 1.85-4.14 4.14v14.64c0 2.3 1.85 4.14 4.14 4.14h1.08c-.02-.2-.04-.38-.04-.58 0-2.4 1.95-4.35 4.35-4.35 2.4 0 4.35 1.93 4.35 4.34 0 .2-.02.4-.05.58h22.67c-.03-.2-.04-.38-.04-.58 0-2.4 1.94-4.35 4.35-4.35 2.4 0 4.36 1.93 4.36 4.34 0 .2-.02.4-.05.58h4.82v-1.72h-1.45c-.23 0-.4-.2-.4-.42v-3.3c-.02-.24.17-.42.4-.42zM820 667.48h7.6v-9.94h-7.6v9.94zm-11.94 0h-1.52c-3.5 0-3.42-2.07-3.42-2.3v-7.22c0-.23.2-.42.4-.42h8.06v9.94h-3.52zm3.93 0h7.6v-9.94H812v9.94zm16.03 0h8.36v-9.94h-8.37v9.94zm12.05-.4c0 .22-.18.4-.4.4h-2.9v-9.94h2.9c.22 0 .4.2.4.42v9.1zm7.43 2.68s-1.85.17-3.88-.3c-2.02-.46-2.3-2.3-2.3-2.3v-9.65h4.06c1.17 0 2.13.96 2.13 2.14v10.12z"/><filter id="a" width="382%" height="613.4%" x="-141%" y="-256.7%" filterUnits="objectBoundingBox"><feOffset in="SourceAlpha" result="shadowOffsetOuter1"/><feGaussianBlur stdDeviation="23.5" in="shadowOffsetOuter1" result="shadowBlurOuter1"/><feColorMatrix values="0 0 0 0 0.564705882 0 0 0 0 0.607843137 0 0 0 0 0.68627451 0 0 0 1 0" in="shadowBlurOuter1"/></filter></defs><g fill="none"><g><g transform="translate(-755 -609)"><use fill="#000" filter="url(#a)" xlink:href="#b"/><use fill="#fff" xlink:href="#b"/></g></g></g></svg>