<svg xmlns="http://www.w3.org/2000/svg" width="20" height="20"><title>002-instagram</title><desc>Created with Sketch.</desc><g fill="none"><g fill="#fff" fill-rule="nonzero"><g><g><g><g transform="translate(0 0)"><path d="M13.75 0h-7.5C2.8 0 0 2.8 0 6.25v7.5C0 17.2 2.8 20 6.25 20h7.5C17.2 20 20 17.2 20 13.75v-7.5C20 2.8 17.2 0 13.75 0zm4.38 13.75c0 2.4-1.97 4.38-4.38 4.38h-7.5c-2.4 0-4.38-1.97-4.38-4.38v-7.5c0-2.4 1.97-4.38 4.38-4.38h7.5c2.4 0 4.38 1.97 4.38 4.38v7.5zM10 5c-2.76 0-5 2.24-5 5s2.24 5 5 5 5-2.24 5-5-2.24-5-5-5zm0 8.13c-1.72 0-3.13-1.4-3.13-3.13 0-1.72 1.4-3.13 3.13-3.13 1.72 0 3.13 1.4 3.13 3.13 0 1.72-1.4 3.13-3.13 3.13z"/><circle cx="15.375" cy="4.625" r="1"/></g></g></g></g></g></g></svg>