<?xml version="1.0" encoding="UTF-8"?>
<svg width="20px" height="19px" viewBox="0 0 20 19" version="1.1" xmlns="http://www.w3.org/2000/svg" xmlns:xlink="http://www.w3.org/1999/xlink">
    <!-- Generator: sketchtool 51.2 (57519) - http://www.bohemiancoding.com/sketch -->
    <title>C5F0BA2C-5E2F-4CF5-BDA3-5B50FE0AAD43</title>
    <desc>Created with sketchtool.</desc>
    <defs></defs>
    <g id="Symbol" stroke="none" stroke-width="1" fill="none" fill-rule="evenodd">
        <g id="icon_favorito_off" transform="translate(0.000000, -2.000000)" stroke="#20649A">
            <path d="M18.6101537,10.7045823 C18.9638403,10.3626104 19.0886444,9.8647526 18.9359058,9.39975965 C18.7827167,8.93476671 18.3848756,8.60345368 17.8937694,8.53417106 L13.5359902,7.90973928 C13.34946,7.88175976 13.1895125,7.76762109 13.1066102,7.60240869 L11.1584053,3.7097027 C10.9398856,3.27224515 10.4947361,3 10.000476,3 C9.50576531,3 9.06241805,3.27224515 8.84209608,3.7097027 L6.89389123,7.60240869 C6.81098889,7.76762109 6.65104145,7.88353623 6.4645112,7.90973928 L2.10673198,8.53417106 C1.61562576,8.60345368 1.21598244,8.93476671 1.0632439,9.39975965 C0.911857033,9.8647526 1.03666109,10.3643869 1.39034768,10.7045823 L4.54424083,13.7334761 C4.67805601,13.8636031 4.73978221,14.049245 4.70779272,14.2313339 L3.96347393,18.5095355 C3.89859385,18.8861487 3.99861732,19.2538795 4.24507154,19.5416688 C4.63074761,19.9928941 5.30117519,20.130127 5.83778758,19.8507759 L9.73464784,17.8313653 C9.89819973,17.7460944 10.1023017,17.7478708 10.2658536,17.8313653 L14.1645161,19.8507759 C14.3528485,19.9493704 14.5551482,20 14.7646569,20 C15.1449263,20 15.5071734,19.8334552 15.7554299,19.5416688 C16.0018841,19.2538795 16.1023581,18.8861487 16.0370275,18.5095355 L15.2927087,14.2313339 C15.2607192,14.049245 15.3224454,13.8636031 15.4562606,13.7334761 L18.6101537,10.7045823 Z" id="favorito-on"></path>
        </g>
    </g>
</svg>