<svg xmlns="http://www.w3.org/2000/svg" width="98" height="82"><defs><filter id="a" width="267.1%" height="370%" x="-83.2%" y="-135%" filterUnits="objectBoundingBox"><feOffset in="SourceAlpha" result="shadowOffsetOuter1"/><feGaussianBlur stdDeviation="13.5" in="shadowOffsetOuter1" result="shadowBlurOuter1"/><feColorMatrix values="0 0 0 0 0.564705882 0 0 0 0 0.607843137 0 0 0 0 0.68627451 0 0 0 0.5 0" in="shadowBlurOuter1" result="shadowMatrixOuter1"/><feMerge><feMergeNode in="shadowMatrixOuter1"/><feMergeNode in="SourceGraphic"/></feMerge></filter></defs><g fill="none"><g fill="#fff"><g><g><g><g filter="url(#a)" transform="translate(24.666 26.333)"><path d="M23 30c-4.6 0-8.33-3.73-8.33-8.33s3.73-8.34 8.33-8.34 8.33 3.73 8.33 8.34c0 4.6-3.73 8.33-8.33 8.33zm.17-4.17c2.2 0 4-1.78 4-4 0-2.2-1.8-3.98-4-3.98s-4 1.78-4 4c0 2.2 1.8 3.98 4 3.98zM12.66 17.33c-.55 1.28-.85 2.7-.85 4.16 0 1.47.3 2.88.87 4.17H9.7V28H7.3v-2.33H5.08V28h-2.4v-2.33H.07L0 22.2l9.34-4.6 3.32-.27zM48.5 19.68h.17v3.44l-11.56.2-1.65-4.42h-1.43L32 15.33h5.4l1.67 4.35h3.05c.14-1.24 1.2-2.2 2.48-2.2H46c1.3 0 2.35.96 2.5 2.2zM28.87 13.33c-1.86-1.6-4.25-2.55-6.87-2.55-2.6 0-4.96.94-6.8 2.5L9.33 7.3V0h25.34v7.3l-5.8 6.03zM11.4 2.43v3.83h2.38V2.43h-2.4zm4.78 0v3.83h2.4V2.43h-2.4zm4.8 0v3.83h2.4V2.43h-2.4zm4.8 0v3.83h2.38V2.43h-2.4zm4.78 0v3.83h2.4V2.43h-2.4z"/></g></g></g></g></g></g></svg>