<svg xmlns="http://www.w3.org/2000/svg" width="138" height="116" xmlns:xlink="http://www.w3.org/1999/xlink"><title>Fill 1</title><desc>Created with Sketch.</desc><defs><path id="b" d="M32.56 55.47h29.28v4.05h-21.3c-.64-1.75-2.3-3-4.27-3-1.94 0-3.6 1.22-4.25 2.92-.8-.23-1.4-.98-1.4-1.86v-.17c0-1.06.87-1.93 1.94-1.93zm6.94 5.15c0 1.86-1.52 3.38-3.4 3.38-1.85 0-3.37-1.52-3.37-3.38 0-1.87 1.52-3.4 3.38-3.4 1.88 0 3.4 1.53 3.4 3.4zm-1.04 0c0-1.3-1.05-2.35-2.35-2.35-1.28 0-2.33 1.05-2.33 2.35s1.05 2.35 2.34 2.35c1.3 0 2.36-1.06 2.36-2.35zm35.23 0c0 1.86-1.53 3.38-3.4 3.38-1.86 0-3.38-1.52-3.38-3.38 0-1.87 1.52-3.4 3.38-3.4 1.87 0 3.4 1.53 3.4 3.4zm-1.05 0c0-1.3-1.05-2.35-2.34-2.35-1.3 0-2.34 1.05-2.34 2.35s1.05 2.35 2.35 2.35 2.35-1.06 2.35-2.35zm5.97-9.72v7.65c0 .36-.3.65-.64.65H74.6c-.72-1.58-2.3-2.68-4.14-2.68-1.84 0-3.43 1.1-4.14 2.68h-2.28c-.36 0-.65-.3-.65-.65V43.2c0-.37.28-.66.64-.66h8.5c.36 0 .9.12 1.3.65l4.78 7.7zm-3-1.68L72.7 44.4c-.23-.42-.5-.65-1.5-.65h-5.27c-.35 0-.64.3-.64.65v4.82c0 .36.28.65.63.65h9.03c.36 0 .65-.3.65-.65zm2.5 7.35c0-.34-.26-.6-.6-.6-.33 0-.6.26-.6.6v1.14c0 .34.27.6.6.6.34 0 .6-.26.6-.6v-1.13zM28.68 54.3h33.17V36H28.67v18.3z"/><filter id="a" width="382.2%" height="603.6%" x="-141.1%" y="-251.8%" filterUnits="objectBoundingBox"><feOffset in="SourceAlpha" result="shadowOffsetOuter1"/><feGaussianBlur stdDeviation="23.5" in="shadowOffsetOuter1" result="shadowBlurOuter1"/><feColorMatrix values="0 0 0 0 0.564705882 0 0 0 0 0.607843137 0 0 0 0 0.68627451 0 0 0 1 0" in="shadowBlurOuter1"/></filter></defs><g fill="none"><g><g><g><g><g transform="translate(16 10)"><use fill="#000" filter="url(#a)" xlink:href="#b"/><use fill="#fff" xlink:href="#b"/></g></g></g></g></g></g></svg>