<svg xmlns="http://www.w3.org/2000/svg" width="121" height="116" xmlns:xlink="http://www.w3.org/1999/xlink"><defs><path id="b" d="M40.67 53.33C37 53.33 34 56.17 34 59.67S37 66 40.67 66s6.66-2.84 6.66-6.33c0-3.5-3-6.34-6.66-6.34zM40.33 64c-2.4 0-4.33-1.94-4.33-4.33 0-2.4 1.94-4.34 4.33-4.34 2.4 0 4.34 1.95 4.34 4.34 0 2.4-1.95 4.33-4.34 4.33zm18-10c-3.12 0-5.66 2.54-5.66 5.67 0 3.12 2.54 5.66 5.66 5.66 3.13 0 5.67-2.54 5.67-5.66 0-3.13-2.54-5.67-5.67-5.67zm.34 8.67c-1.84 0-3.34-1.5-3.34-3.34 0-1.84 1.5-3.33 3.34-3.33C60.5 56 62 57.5 62 59.33c0 1.84-1.5 3.34-3.33 3.34zM73.1 42.3l-.9-.44c-.06-.03-.1-.04-.16-.05l-2.47-.27-.73-5.8c-.02-.18-.14-.32-.3-.37-.16-.06-.34-.02-.46.1L63.68 40c-.12.1-.16.25-.13.4l.1.62-2.97.85-4.08 8.98h-.48c0-.23 0-.38.02-.53h-.54l-3.68-10.8c-.1-.4-.46-.7-.86-.7h-9.54c-.5 0-.9.42-.9.92v9.1c-.3-.06-.6-.1-.93-.1-2.78 0-5.03 2.28-5.03 5.08v1.74c1.2-2.1 3.46-3.5 6.03-3.5 3.86 0 7 3.16 7 7.05 0 .53-.07 1.06-.2 1.57h4.33c-.07-.37-.1-.74-.1-1.13 0-2.8 1.85-5.17 4.4-5.92v-.54h1.9l4.25-9.34 1.8-.52.23 1.2c.03.12.1.23.2.3.07.04.16.07.24.07.02 0 2.77-.56 8.23-1.65.2-.04.34-.2.36-.4.03-.18-.08-.36-.24-.45zM43.27 50c-.2-.17-.4-.33-.6-.46v-8.87h7.96L54 50H43.28z"/><filter id="a" width="458.5%" height="559.8%" x="-179.2%" y="-229.9%" filterUnits="objectBoundingBox"><feOffset in="SourceAlpha" result="shadowOffsetOuter1"/><feGaussianBlur stdDeviation="23.5" in="shadowOffsetOuter1" result="shadowBlurOuter1"/><feColorMatrix values="0 0 0 0 0.564705882 0 0 0 0 0.607843137 0 0 0 0 0.68627451 0 0 0 1 0" in="shadowBlurOuter1"/></filter></defs><g fill="none"><g><g><g><g><g transform="translate(8.333 6)"><use fill="#000" filter="url(#a)" xlink:href="#b"/><use fill="#fff" xlink:href="#b"/></g></g></g></g></g></g></svg>