<?xml version="1.0" encoding="UTF-8"?>
<svg width="47px" height="44px" viewBox="0 0 47 44" version="1.1" xmlns="http://www.w3.org/2000/svg" xmlns:xlink="http://www.w3.org/1999/xlink">
    <!-- Generator: sketchtool 51.2 (57519) - http://www.bohemiancoding.com/sketch -->
    <title>7FCD68BC-EB21-4A18-9AAA-5471A151A608</title>
    <desc>Created with sketchtool.</desc>
    <defs>
        <polygon id="path-1" points="0.00698019802 0.0129360269 46.9186807 0.0129360269 46.9186807 33.9181481 0.00698019802 33.9181481"></polygon>
        <polygon id="path-3" points="0.00698019802 0.0692571429 46.9186807 0.0692571429 46.9186807 44 0.00698019802 44"></polygon>
    </defs>
    <g id="Login" stroke="none" stroke-width="1" fill="none" fill-rule="evenodd">
        <g id="2.2.3_Esqueci_minha_senha" transform="translate(-347.000000, -377.000000)">
            <g id="letter" transform="translate(347.000000, 377.000000)">
                <g id="Group-3" transform="translate(0.000000, 4.000000)">
                    <mask id="mask-2" fill="white">
                        <use xlink:href="#path-1"></use>
                    </mask>
                    <g id="Clip-2"></g>
                    <polygon id="Fill-1" fill="#D07C40" mask="url(#mask-2)" points="0 13.7195152 23.4590495 0.0129360269 46.9186807 13.7195152 46.9186807 33.9181481 0 33.9181481"></polygon>
                </g>
                <path d="M5.44421522,0 L41.5557848,0 C42.3503839,0 43,0.646107397 43,1.43565497 L43,26.5638893 C43,27.3537787 42.3503839,28 41.5557848,28 L5.44421522,28 C4.6500745,28 4,27.3537787 4,26.5638893 L4,1.43565497 C4,0.646107397 4.6500745,0 5.44421522,0 Z" id="Fill-4" fill="#F2F2F2"></path>
                <g id="Group-9">
                    <mask id="mask-4" fill="white">
                        <use xlink:href="#path-3"></use>
                    </mask>
                    <g id="Clip-6"></g>
                    <path d="M38.7078738,2.95005714 L41.0536856,0.0692571429 L41.7867228,0.0692571429 C42.5932847,0.0692571429 43.253146,0.717371429 43.253146,1.50937143 L43.253146,2.95005714 L38.7078738,2.95005714 Z M19.6472797,2.95005714 L21.9930916,0.0692571429 L27.1245842,0.0692571429 L24.7787723,2.95005714 L19.6472797,2.95005714 Z M3.66553465,2.95005714 L3.66553465,1.50937143 C3.66553465,0.717371429 4.32539604,0.0692571429 5.13149257,0.0692571429 L8.79749257,0.0692571429 L6.45121535,2.95005714 L3.66553465,2.95005714 Z" id="Fill-5" fill="#26A6D1" mask="url(#mask-4)"></path>
                    <path d="M46.9182153,41.8393143 C46.9182153,43.0276571 45.9288886,44 44.7192203,44 L2.1994604,44 C0.989792079,44 0,43.0276571 0,41.8393143 L0,17.3536 L23.4590495,27.4362286 L46.9186807,17.3536 L46.9186807,41.8393143 L46.9182153,41.8393143 Z" id="Fill-7" fill="#EFC75E" mask="url(#mask-4)"></path>
                    <path d="M46.9182153,41.8393143 C46.9182153,43.0276571 45.9288886,44 44.7192203,44 L2.1994604,44 C0.989792079,44 0,43.0276571 0,41.8393143 L0,37.5182857 L46.9182153,17.3536 L46.9182153,41.8393143 Z" id="Fill-8" fill="#E8C15B" mask="url(#mask-4)"></path>
                </g>
                <path d="M14.435382,13 L14.7335935,14.600266 L12.3512095,10.790581 L9.00046513,16.123874 C8.96360221,16.6193701 11.1225639,17 13.8026868,17 C16.4831641,17 18.6422439,16.6193701 18.6422439,16.123874 L15.7013632,11.666707 L14.435382,13 Z M14.7335935,10.9048425 C15.2546366,10.9048425 15.6640277,10.4858836 15.6640277,9.95217943 C15.6640277,9.41895895 15.2546366,9 14.7335935,9 C14.2120778,9 13.8026868,9.41895895 13.8026868,9.95217943 C13.8026868,10.4858836 14.2120778,10.9048425 14.7335935,10.9048425 Z M22.3649257,10.5237289 L37.2555345,10.5237289 C37.6649256,10.5237289 38,10.1808234 38,9.76186446 C38,9.34290551 37.6649256,9 37.2555345,9 L22.3649257,9 C21.9555347,9 21.6204602,9.34290551 21.6204602,9.76186446 C21.6204602,10.1808234 21.9555347,10.5237289 22.3649257,10.5237289 Z M37.2555345,12.0478206 L22.3649257,12.0478206 C21.9555347,12.0478206 21.6204602,12.3907261 21.6204602,12.809685 C21.6204602,13.228644 21.9555347,13.5715495 22.3649257,13.5715495 L37.2555345,13.5715495 C37.6649256,13.5715495 38,13.228644 38,12.809685 C38,12.3907261 37.6649256,12.0478206 37.2555345,12.0478206 Z M33.5328528,15.0951575 L22.3649257,15.0951575 C21.9555347,15.0951575 21.6204602,15.4385466 21.6204602,15.8575056 C21.6204602,16.2764645 21.9555347,16.6193701 22.3649257,16.6193701 L33.5328528,16.6193701 C33.9422438,16.6193701 34.2773183,16.2764645 34.2773183,15.8575056 C34.2773183,15.4385466 33.9422438,15.0951575 33.5328528,15.0951575 Z" id="Fill-10" fill="#D6D9DB"></path>
                <path d="M28.6739261,3 L30.9721503,0 L36,0 L33.7013199,3 L28.6739261,3 Z M10,3 L12.2982242,0 L17.3260739,0 L15.0273938,3 L10,3 Z" id="Fill-11" fill="#E2574C"></path>
            </g>
        </g>
    </g>
</svg>