<?xml version="1.0" encoding="UTF-8"?>
<svg width="15px" height="20px" viewBox="0 0 15 20" version="1.1" xmlns="http://www.w3.org/2000/svg" xmlns:xlink="http://www.w3.org/1999/xlink">
    <!-- Generator: Sketch 49 (51002) - http://www.bohemiancoding.com/sketch -->
    <title>man-user</title>
    <desc>Created with Sketch.</desc>
    <defs>
        <polygon id="path-1" points="0.00422535211 0.00285714286 14.9964085 0.00285714286 14.9964085 20 0.00422535211 20"></polygon>
    </defs>
    <g id="Cartão" stroke="none" stroke-width="1" fill="none" fill-rule="evenodd">
        <g id="24.1.0_Cartão" transform="translate(-780.000000, -538.000000)">
            <g id="Conteúdo" transform="translate(269.000000, 297.000000)">
                <g id="meus-dados" transform="translate(505.000000, 241.000000)">
                    <g id="man-user" transform="translate(6.000000, 0.000000)">
                        <mask id="mask-2" fill="white">
                            <use xlink:href="#path-1"></use>
                        </mask>
                        <g id="Clip-2"></g>
                        <path d="M7.49887324,9.78128571 C9.69105634,9.78128571 11.468662,7.59178571 11.468662,4.89064286 C11.468662,2.18971429 10.8849296,0 7.49887324,0 C4.11253521,0 3.52908451,2.18971429 3.52908451,4.89064286 C3.52908451,7.59178571 5.30647887,9.78128571 7.49887324,9.78128571 Z" id="Fill-1" fill="#C6CCD6" mask="url(#mask-2)"></path>
                        <path d="M14.988169,17.0513571 C14.9147183,12.346 14.3087324,11.0052857 9.67267606,10.1565 C9.67267606,10.1565 9.01985915,11 7.49887324,11 C5.97767606,11 5.32485915,10.1565 5.32485915,10.1565 C0.73943662,10.9960714 0.0965492958,12.317 0.0121126761,16.8984286 C0.00521126761,17.2725714 0.00190140845,17.2921429 0.000845070423,17.2485714 C0.00112676056,17.3300714 0.0014084507,17.4807143 0.0014084507,17.743 C0.0014084507,17.743 1.105,20 7.49887324,20 C13.8924648,20 14.9961268,17.743 14.9961268,17.743 C14.9961268,17.5745 14.9964085,17.4572857 14.9964085,17.3775 C14.9953521,17.4042857 14.9928169,17.3521429 14.988169,17.0513571 Z" id="Fill-3" fill="#C6CCD6" mask="url(#mask-2)"></path>
                    </g>
                </g>
            </g>
        </g>
    </g>
</svg>