<svg xmlns="http://www.w3.org/2000/svg" width="40" height="47" xmlns:xlink="http://www.w3.org/1999/xlink"><title>smartphone</title><desc>Created with Sketch.</desc><defs><path id="a" d="M.06.6H25.6V47H.06z"/></defs><g fill="none"><g><g><g><g transform="translate(0 0)"><mask id="b"><use xlink:href="#a"/></mask><path fill="#424A60" d="M22.88 47H2.7C1.22 47 0 45.78 0 44.28V3.32C0 1.82 1.22.6 2.72.6h20.16c1.5 0 2.72 1.22 2.72 2.72v40.96c0 1.5-1.22 2.72-2.73 2.72z" mask="url(#b)"/><path fill="#E7ECED" d="M.06 37.4H25.6v-32H.06z" mask="url(#b)"/></g><path fill="#262B35" d="M15.2 42.2c0 1.33-1.07 2.4-2.4 2.4-1.33 0-2.4-1.07-2.4-2.4 0-1.33 1.07-2.4 2.4-2.4 1.32 0 2.4 1.07 2.4 2.4z"/><path fill="#262B35" d="M12.8 3.8H9.6c-.44 0-.8-.36-.8-.8 0-.44.36-.8.8-.8h3.2c.44 0 .8.36.8.8 0 .44-.36.8-.8.8z"/><path fill="#262B35" d="M16 3.8h-.8c-.44 0-.8-.36-.8-.8 0-.44.36-.8.8-.8h.8c.44 0 .8.36.8.8 0 .44-.36.8-.8.8z"/><path fill="#25AE88" d="M40 10.2H11.2v15.2h3.2v4.8l6.4-4.8H40z"/><path fill="#57D8AB" d="M16 16.6h8c.44 0 .8-.36.8-.8 0-.44-.36-.8-.8-.8h-8c-.44 0-.8.36-.8.8 0 .44.36.8.8.8z"/><path fill="#57D8AB" d="M35.2 19H16c-.44 0-.8.36-.8.8 0 .44.36.8.8.8h19.2c.44 0 .8-.36.8-.8 0-.44-.36-.8-.8-.8z"/></g></g></g></g></svg>