<?xml version="1.0" encoding="UTF-8"?>
<svg width="41px" height="29px" viewBox="0 0 41 29" version="1.1" xmlns="http://www.w3.org/2000/svg" xmlns:xlink="http://www.w3.org/1999/xlink">
    <!-- Generator: Sketch 49 (51002) - http://www.bohemiancoding.com/sketch -->
    <title>thumb</title>
    <desc>Created with Sketch.</desc>
    <defs>
        <polygon id="path-1" points="0.00443877551 0.0605642633 0.00443877551 23 29 23 29 0.0605642633"></polygon>
    </defs>
    <g id="Layout" stroke="none" stroke-width="1" fill="none" fill-rule="evenodd">
        <g id="8.1.1_anunciar" transform="translate(-571.000000, -678.000000)">
            <g id="thumb" transform="translate(571.000000, 641.000000)">
                <g id="photo-camera" transform="translate(0.000000, 43.000000)">
                    <g id="Group-3">
                        <mask id="mask-2" fill="white">
                            <use xlink:href="#path-1"></use>
                        </mask>
                        <g id="Clip-2"></g>
                        <path d="M0,7.08017868 L0,19.550721 C0,21.4540972 1.58619643,23 3.53918367,23 L25.4608163,23 C27.4138036,23 29,21.4540972 29,19.550721 L29,7.08017868 C29,5.26894671 27.4909643,3.79824451 25.632449,3.79824451 L20.9215026,3.79824451 L20.8090536,3.31942633 C20.3533393,1.39867398 18.6191837,0.0605642633 16.595102,0.0605642633 L12.3991276,0.0605642633 C10.3808163,0.0605642633 8.64666071,1.39867398 8.18517602,3.31942633 L8.07272704,3.79824451 L3.36755102,3.79824451 C1.50903571,3.79824451 0,5.27485893 0,7.08017868 Z M8.65272704,5.21148276 C8.99,5.21148276 9.28007398,4.98645768 9.35693878,4.66344828 L9.5997398,3.63688401 C9.9074949,2.36215047 11.0555842,1.47387461 12.3991276,1.47387461 L16.595102,1.47387461 C17.9385714,1.47387461 19.0867347,2.36215047 19.3944898,3.63688401 L19.6372168,4.66344828 C19.7140816,4.98054545 20.0039337,5.21148276 20.3415026,5.21148276 L25.6263827,5.21148276 C26.6858444,5.21148276 27.5440816,6.04770219 27.5440816,7.08017868 L27.5440816,19.550721 C27.5440816,20.6756301 26.6089796,21.5867618 25.45475,21.5867618 L3.53918367,21.5867618 C2.38495408,21.5867618 1.45014796,20.6756301 1.45014796,19.550721 L1.45014796,7.08017868 C1.45014796,6.04770219 2.30808929,5.21148276 3.36755102,5.21148276 L8.65272704,5.21148276 Z" id="Fill-1" fill="#4A90E2" mask="url(#mask-2)"></path>
                    </g>
                    <path d="M6,8.00015245 C6,8.55248113 5.55224449,9 5,9 C4.44775551,9 4,8.55248113 4,8.00015245 C4,7.44782377 4.44775551,7 5,7 C5.55224449,7 6,7.44782377 6,8.00015245 Z" id="Fill-4" fill="#4A90E2"></path>
                    <path d="M15,19 C18.3060496,19 21,16.5305604 21,13.5000334 C21,10.4694396 18.3060496,8 15,8 C11.6939504,8 9,10.463961 9,13.5000334 C9,16.536039 11.6939504,19 15,19 Z M15,9.30964948 C17.5188776,9.30964948 19.5713557,11.1910763 19.5713557,13.5000334 C19.5713557,15.8089237 17.5188776,17.6903505 15,17.6903505 C12.4811224,17.6903505 10.4286443,15.8089237 10.4286443,13.5000334 C10.4286443,11.1910763 12.4811224,9.30964948 15,9.30964948 Z" id="Fill-5" fill="#4A90E2"></path>
                </g>
                <text id="+" font-family="Roboto-Light, Roboto" font-size="20" font-weight="300" fill="#4A90E2">
                    <tspan x="30" y="49">+</tspan>
                </text>
            </g>
        </g>
    </g>
</svg>