<svg xmlns="http://www.w3.org/2000/svg" width="41" height="30" xmlns:xlink="http://www.w3.org/1999/xlink"><defs><path id="a" d="M0 .06V23h29V.06z"/></defs><g fill="none"><g><g><g><g transform="translate(0 7)"><mask id="b"><use xlink:href="#a"/></mask><path fill="#7ED321" d="M0 7.08v12.47C0 21.45 1.6 23 3.54 23h21.92C27.4 23 29 21.45 29 19.55V7.08c0-1.8-1.5-3.28-3.37-3.28h-4.7l-.12-.48C20.36 1.4 18.63.06 16.6.06h-4.2c-2.02 0-3.75 1.34-4.2 3.26l-.13.48h-4.7C1.5 3.8 0 5.27 0 7.08zM8.65 5.2c.34 0 .63-.2.7-.54l.25-1.02c.3-1.28 1.46-2.17 2.8-2.17h4.2c1.34 0 2.5.9 2.8 2.17l.24 1.02c.07.32.36.55.7.55h5.3c1.05 0 1.9.85 1.9 1.88v12.47c0 1.13-.93 2.04-2.1 2.04H3.55c-1.16 0-2.1-.92-2.1-2.05V7.08c0-1.03.87-1.87 1.93-1.87h5.28z" mask="url(#b)"/></g><path fill="#7ED321" d="M6.17 15.17c0 .5-.4.9-.93.9-.5 0-.92-.4-.92-.9s.4-.9.92-.9.93.4.93.9z"/><path fill="#7ED321" d="M14.5 26.37c3.23 0 5.86-2.58 5.86-5.75s-2.63-5.75-5.86-5.75c-3.23 0-5.86 2.57-5.86 5.75 0 3.17 2.63 5.75 5.86 5.75zm0-10.13c2.46 0 4.47 1.96 4.47 4.38 0 2.4-2 4.38-4.47 4.38-2.46 0-4.47-1.97-4.47-4.38 0-2.42 2-4.38 4.47-4.38z"/></g><text fill="#7ED321" font-family=".SFNSDisplay, .SF NS Display" font-size="20" transform="translate(-391 -677) translate(325 635)"><tspan x="96" y="53">+</tspan></text></g></g></g></svg>