<svg xmlns="http://www.w3.org/2000/svg" width="30" height="17"><title>z</title><desc>Created with Sketch.</desc><g fill="none"><g fill="#5487C5"><g><g><g><g><g><path id="Fill-2" d="M12.7 3.98c-.04-.05-.08-.12-.08-.2 0-.14.12-.26.27-.26h4.18c.15 0 .26.1.26.25s-.1.27-.26.27h-4.2c-.06 0-.12-.02-.17-.06z"/><path id="Fill-2-Copy" d="M10.73 8.93c-.05-.05-.08-.12-.08-.2 0-.14.1-.26.26-.26l4.2-.02c.15 0 .27.12.26.27 0 .15-.1.26-.26.27h-4.2c-.06 0-.12-.03-.17-.07z"/><path id="Fill-2-Copy-2" d="M10.74 10.56c-.05-.05-.08-.12-.08-.2 0-.14.1-.26.26-.26h4.2c.14 0 .26.1.26.25s-.12.27-.27.27h-4.18c-.07 0-.13-.02-.18-.06z"/><path id="Fill-2-Copy-3" d="M10.73 12.17c-.05-.05-.08-.12-.08-.2 0-.14.1-.26.26-.26h4.2c.15 0 .27.12.26.26 0 .15-.1.27-.26.27h-4.2c-.06 0-.12-.02-.17-.06z"/><path id="Fill-3" d="M9.15 15.13V1.33C9.15.6 9.75 0 10.47 0h9.06c.73 0 1.33.6 1.33 1.33v13.8c0 .73-.6 1.33-1.33 1.33h-9.06c-.73 0-1.32-.6-1.32-1.33zm11.18-13.8c0-.44-.36-.8-.8-.8h-9.06c-.44 0-.8.36-.8.8v13.8c0 .44.36.8.8.8h9.06c.44 0 .8-.36.8-.8V1.33z"/></g><g opacity=".8"><path id="Fill-2" d="M23.9 5.06c-.04-.04-.07-.1-.07-.14 0-.1.1-.2.2-.2h3.1c.1 0 .2.08.2.2 0 .1-.1.18-.2.2h-3.1c-.05 0-.1-.03-.13-.06z"/><path id="Fill-2-Copy" d="M22.43 8.73c-.04-.04-.06-.1-.06-.15 0-.1.1-.2.2-.2h3.1c.1 0 .2.1.2.2s-.1.2-.2.2h-3.1c-.06 0-.1-.02-.14-.05z"/><path id="Fill-2-Copy-2" d="M22.44 9.94c-.04-.04-.06-.1-.06-.15 0-.12.08-.2.2-.2h3.1c.1 0 .2.07.2.18 0 .1-.1.2-.2.2h-3.1c-.06 0-.1 0-.14-.04z"/><path id="Fill-2-Copy-3" d="M22.43 11.13c-.04-.04-.06-.1-.06-.14 0-.12.1-.2.2-.2l3.1-.02c.1 0 .2.1.2.2s-.1.2-.2.2h-3.1c-.06 0-.1-.02-.14-.05z"/><path id="Fill-3" d="M21.26 13.32V3.1c0-.54.44-.98.98-.98h6.7c.55 0 1 .44 1 .98v10.22c0 .54-.45 1-1 1h-6.7c-.54 0-.98-.46-.98-1zM29.54 3.1c0-.33-.27-.6-.6-.6h-6.7c-.32 0-.6.27-.6.6v10.22c0 .33.28.6.6.6h6.7c.33 0 .6-.27.6-.6V3.1z"/></g><g opacity=".8"><path d="M2.68 5.06c-.04-.04-.06-.1-.06-.14 0-.1.08-.2.2-.2h3.1c.1 0 .2.08.2.2 0 .1-.1.18-.2.2h-3.1c-.06 0-.1-.03-.14-.06z"/><path d="M1.2 8.73c-.03-.04-.05-.1-.05-.15 0-.1.1-.2.2-.2h3.1c.1 0 .2.1.2.2s-.1.2-.2.2h-3.1c-.05 0-.1-.02-.14-.05z"/><path d="M1.22 9.94c-.04-.04-.06-.1-.06-.15 0-.12.1-.2.2-.2h3.1c.1 0 .2.07.2.18 0 .1-.1.2-.2.2h-3.1c-.06 0-.1 0-.14-.04z"/><path d="M1.2 11.13c-.03-.04-.05-.1-.05-.14 0-.12.1-.2.2-.2l3.1-.02c.1 0 .2.1.2.2s-.1.2-.2.2h-3.1c-.05 0-.1-.02-.14-.05z"/><path d="M.04 13.32V3.1c0-.54.44-.98.98-.98h6.7c.55 0 1 .44 1 .98v10.22c0 .54-.45 1-1 1h-6.7c-.54 0-.98-.46-.98-1zM8.32 3.1c0-.33-.26-.6-.6-.6h-6.7c-.32 0-.6.27-.6.6v10.22c0 .33.28.6.6.6h6.7c.34 0 .6-.27.6-.6V3.1z"/></g></g></g></g></g></g></g></svg>