<svg xmlns="http://www.w3.org/2000/svg" width="15" height="16"><g fill="none"><g fill="#C6CCD6"><g><g><g><path d="M14.15 2.56c-.22-.22-.48-.33-.78-.33h-1.1V1.4c0-.4-.15-.72-.42-1-.27-.26-.6-.4-1-.4h-.54c-.38 0-.7.14-.98.4-.27.28-.4.6-.4 1v.83H5.56V1.4c0-.4-.13-.72-.4-1-.28-.26-.6-.4-1-.4h-.55c-.38 0-.7.14-.98.4-.28.28-.4.6-.4 1v.83H1.1c-.3 0-.55.1-.77.33-.22.22-.33.48-.33.78V14.5c0 .3.1.55.33.77.22.22.48.33.78.33h12.27c.3 0 .56-.1.78-.33.23-.22.34-.48.34-.78V3.33c0-.3-.12-.56-.35-.78zM10.03 1.4c0-.1.02-.16.08-.2.06-.06.13-.1.2-.1h.56c.1 0 .15.04.2.1.06.04.08.1.08.2v2.5c0 .08-.02.15-.08.2-.05.05-.1.08-.2.08h-.55c-.07 0-.14-.03-.2-.08-.05-.05-.07-.12-.07-.2V1.4zm-6.7 0c0-.1.04-.16.1-.2.04-.06.1-.1.2-.1h.55c.08 0 .15.04.2.1.05.04.08.1.08.2v2.5c0 .08-.03.15-.08.2-.05.05-.12.08-.2.08h-.56c-.08 0-.15-.03-.2-.08-.05-.05-.08-.12-.08-.2V1.4zM1.3 13H13V5.2H1.3V13z"/></g></g></g></g></g></svg>