<svg xmlns="http://www.w3.org/2000/svg" width="78" height="87"><title>thumbs-up</title><desc>Created with Sketch.</desc><g fill="none"><g><g><g><path fill="#EEAB7C" d="M58.33 41.05c-.45-2.72-1.88-5.97-6.17-5.97-.6 0-1.13.44-1.24 1.05L50.1 41c-.33 1.93-.77 3.76-1.33 5.45-1.53 4.68-3.47 7.08-6.9 8.56-1.66.72-3 1.33-3.54 1.58H31.9c-.7 0-1.26.56-1.26 1.26V80.7c0 .68.56 1.25 1.26 1.25h6.26l2.7 2.2c2.26 1.84 5.1 2.85 8.02 2.85h7.65c.7 0 1.25-.56 1.25-1.26 0-.47-.26-.88-.64-1.1v-25.2h-1.56l2.63-13.3c.35-1.74.4-3.46.13-5.1"/><path fill="#EFE6DE" d="M32.15 53.32h-9.97c-.7 0-1.3.57-1.3 1.26v26.95c0 .7.6 1.26 1.3 1.26h9.97c.7 0 1.28-.57 1.28-1.27V54.58c0-.7-.58-1.26-1.28-1.26"/><path fill="#D4CCC6" d="M20.9 78.58v4.2c0 .78.57 1.4 1.28 1.4h9.97c.7 0 1.28-.62 1.28-1.4v-4.2H20.9"/><path fill="#D1936F" d="M53.84 83.32c0-2.04 1.47-3.7 3.27-3.7-1.8 0-3.26-1.64-3.26-3.67 0-2.03 1.47-3.68 3.27-3.68-1.8 0-3.26-1.65-3.26-3.7 0-2.02 1.47-3.67 3.27-3.67-1.8 0-3.26-1.65-3.26-3.68 0-2.04 1.47-3.7 3.27-3.7h-3.7c-1.8 0-3.26 1.66-3.26 3.7 0 2.03 1.46 3.68 3.27 3.68-1.8 0-3.26 1.65-3.26 3.68 0 2.04 1.46 3.7 3.27 3.7-1.8 0-3.26 1.64-3.26 3.67 0 2.03 1.46 3.68 3.27 3.68-1.8 0-3.26 1.65-3.26 3.7 0 2.02 1.46 3.67 3.27 3.67h3.7c-1.8 0-3.26-1.65-3.26-3.68"/><path fill="#F2C855" d="M24.95 18.76c-.28-.86-1-1.47-1.92-1.6l-5.78-.83-2.58-5.2c-.4-.8-1.22-1.3-2.13-1.3-.92 0-1.73.5-2.14 1.3l-2.58 5.2-5.78.83c-.9.13-1.64.74-1.92 1.6-.28.86-.05 1.8.6 2.42l4.18 4.04-.98 5.7c-.16.9.2 1.77.94 2.3.42.3.9.46 1.4.46.37 0 .75-.1 1.1-.28l5.18-2.7 5.17 2.7c.8.42 1.77.36 2.5-.18.75-.53 1.1-1.4.96-2.3l-1-5.7 4.2-4.04c.64-.63.87-1.56.6-2.42"/><path fill="#EDA52D" d="M23.2 16.86l-.1-.02-6 6.5c-.3.34-.44.8-.37 1.28l1.4 8.67.2.1c.74.43 1.62.36 2.3-.18.67-.54 1-1.44.86-2.35l-.92-5.8 3.83-4.12c.6-.64.82-1.6.56-2.46-.25-.9-.93-1.5-1.75-1.64"/><path fill="#F2C855" d="M51.42 8.94c-.28-.86-1.02-1.47-1.92-1.6l-5.78-.84-2.6-5.2C40.73.5 39.93 0 39 0c-.9 0-1.73.5-2.13 1.3l-2.6 5.2-5.77.84c-.9.13-1.64.74-1.92 1.6-.28.86-.05 1.78.6 2.4l4.2 4.05-1 5.7c-.15.9.2 1.77.95 2.3.73.53 1.7.6 2.5.18l5.17-2.7 5.17 2.7c.35.18.73.27 1.1.27.5 0 1-.15 1.4-.45.74-.53 1.1-1.4.95-2.3l-1-5.7 4.2-4.05c.65-.63.88-1.55.6-2.4"/><g><path fill="#EDA52D" d="M47.38 23.63c.7-.55 1.06-1.45.92-2.37l-.96-5.85 4.04-4.13c.63-.65.86-1.6.58-2.48-.27-.9-.98-1.52-1.85-1.66h-.04l-6.4 6.54c-.3.34-.46.8-.38 1.28l1.15 7.1.28 1.6.26.15c.34.2.7.3 1.07.3.48 0 .95-.17 1.35-.47"/><path fill="#F2C855" d="M77.75 18.27c-.27-.9-.98-1.52-1.85-1.65l-5.6-.85-2.48-5.33c-.4-.83-1.18-1.34-2.06-1.34-.9 0-1.67.5-2.06 1.34l-2.5 5.33-5.6.85c-.86.13-1.57.76-1.84 1.65-.27.88-.05 1.83.58 2.47l4.04 4.15-.95 5.84c-.15.9.2 1.82.9 2.36.72.55 1.65.62 2.43.2l5-2.78 5 2.77c.33.17.7.27 1.06.27.48 0 .95-.16 1.35-.47.7-.54 1.06-1.45.9-2.36l-.94-5.85 4.04-4.16c.63-.64.85-1.6.58-2.47"/><path fill="#EDA52D" d="M77.75 18.27c-.27-.9-.98-1.52-1.85-1.65h-.1l-6.34 6.54c-.33.33-.47.8-.4 1.28l1.34 8.66.35.2c.34.17.7.27 1.07.27.48 0 .95-.16 1.35-.47.7-.54 1.06-1.45.9-2.36l-.94-5.85 4.04-4.16c.63-.64.85-1.6.58-2.47"/></g><path fill="#52686E" d="M22.42 51.92H1.26c-.7 0-1.26.57-1.26 1.27v32.53C0 86.43.56 87 1.26 87h21.16c.7 0 1.26-.57 1.26-1.27V53.2c0-.7-.56-1.28-1.26-1.28"/><path fill="#425359" d="M0 81.4v4.14C0 86.34.56 87 1.26 87h21.16c.7 0 1.26-.65 1.26-1.46V81.4H0"/><path fill="#2F302E" d="M16.02 77.18c1.15 0 2.1.94 2.1 2.1 0 1.16-.95 2.1-2.1 2.1-1.16 0-2.1-.94-2.1-2.1 0-1.16.94-2.1 2.1-2.1"/><path fill="#F6C49A" d="M69.73 57.53h-12.7c-2.27 0-4.1 1.74-4.1 3.9v.64c0 2.14 1.83 3.88 4.1 3.88h12.7c2.26 0 4.1-1.74 4.1-3.88v-.65c0-2.15-1.84-3.9-4.1-3.9"/><path fill="#EEAB7C" d="M69.73 63.03h-12.7c-1.7 0-3.13-1.1-3.76-2.7-.22.56-.34 1.16-.34 1.8v.74c0 2.47 1.83 4.48 4.1 4.48h12.7c2.26 0 4.1-2 4.1-4.48v-.75c0-.63-.13-1.23-.35-1.78-.63 1.58-2.07 2.7-3.75 2.7"/><path fill="#F6C49A" d="M71.14 64.55H57c-2.24 0-4.07 1.74-4.07 3.88v.65c0 2.15 1.83 3.9 4.07 3.9h14.14c2.25 0 4.07-1.75 4.07-3.9v-.65c0-2.14-1.8-3.88-4.06-3.88"/><path fill="#EEAB7C" d="M71.14 70.08H57c-1.67 0-3.12-1.12-3.74-2.72-.2.54-.33 1.14-.33 1.77v.75c0 2.48 1.83 4.5 4.07 4.5h14.14c2.25 0 4.07-2.02 4.07-4.5v-.75c0-.63-.1-1.23-.32-1.78-.62 1.6-2.06 2.73-3.74 2.73"/><path fill="#F6C49A" d="M69.4 71.56H57.35c-2.44 0-4.43 1.9-4.43 4.2 0 2.34 2 4.22 4.43 4.22H69.4c2.43 0 4.42-1.88 4.42-4.2 0-2.33-2-4.22-4.43-4.22"/><path fill="#EEAB7C" d="M69.4 77.04H57.35c-1.73 0-3.23-1.1-3.96-2.67-.3.66-.47 1.4-.47 2.18 0 2.67 2 4.84 4.43 4.84H69.4c2.43 0 4.42-2.18 4.42-4.85 0-.8-.17-1.52-.47-2.18-.73 1.58-2.23 2.67-3.96 2.67"/><path fill="#F6C49A" d="M66.47 78.58H57.5c-2.52 0-4.57 1.9-4.57 4.2 0 2.33 2.05 4.22 4.56 4.22h8.97c2.52 0 4.57-1.9 4.57-4.2 0-2.33-2.05-4.22-4.57-4.22"/><path fill="#EEAB7C" d="M66.47 82.65H57.5c-1.8 0-3.33-1.1-4.08-2.67-.3.66-.5 1.4-.5 2.18C52.93 84.83 55 87 57.5 87h8.97c2.52 0 4.57-2.17 4.57-4.84 0-.78-.18-1.52-.5-2.18-.74 1.58-2.3 2.67-4.07 2.67"/></g></g></g></g></svg>