<svg xmlns="http://www.w3.org/2000/svg" width="20" height="15"><title>mail</title><desc>Created with Sketch.</desc><g fill="none"><g fill="#5487C5"><g><g><g><g><path d="M16.18 11.23c-.08 0-.15-.03-.22-.1l-3.7-3.55c-.14-.12-.14-.33-.03-.46.13-.14.33-.14.46-.02l3.7 3.56c.14.12.14.33.02.46-.06.07-.15.1-.24.1z"/><path d="M3.82 11.23c-.1 0-.18-.04-.24-.1-.12-.14-.12-.35 0-.47L7.3 7.1c.14-.12.34-.12.46.02.12.13.12.34 0 .46l-3.72 3.56c-.07.06-.15.1-.22.1z"/><path d="M18.4 14.54H1.6c-.88 0-1.6-.73-1.6-1.64V1.65C0 .75.72 0 1.6 0h16.8c.87 0 1.6.74 1.6 1.65V12.9c0 .9-.73 1.64-1.6 1.64zM1.6.66c-.52 0-.95.45-.95 1V12.9c0 .54.43.98.96.98h16.8c.52 0 .95-.44.95-.98V1.65c0-.54-.43-1-.96-1H1.6z"/><path d="M10 8.95c-.43 0-.85-.15-1.18-.44L.54 1.14C.4 1 .4.8.5.66.64.52.84.5.98.63L9.24 8c.42.38 1.1.38 1.52 0L19.03.65c.14-.12.34-.1.46.03.1.14.1.35-.04.47L11.2 8.5c-.34.3-.77.45-1.2.45z"/></g></g></g></g></g></g></svg>