<svg xmlns="http://www.w3.org/2000/svg" width="20" height="22"><title>exit</title><desc>Created with Sketch.</desc><g fill="none"><g fill="#5487C5"><g><g><g><g><path d="M19.97 9.48c.04-.1.04-.2 0-.3-.02-.04-.05-.1-.08-.12L15.36 4.4c-.15-.16-.4-.16-.53 0-.15.14-.15.4 0 .54l3.87 4H10.6c-.2 0-.37.18-.37.4 0 .2.17.38.38.38h8.13l-3.86 4c-.15.16-.15.4 0 .56.07.07.17.1.26.1.1 0 .2-.03.27-.1L19.9 9.6c.02-.03.05-.07.07-.12z"/><path d="M13.2 11.27c-.22 0-.4.18-.4.4v6.2H9.05V3.12c0-.16-.1-.3-.26-.36L2.8.78h10V7c0 .2.18.4.4.4.2 0 .36-.2.36-.4V.4c0-.23-.17-.4-.37-.4H.37C.36 0 .36 0 .34 0S.3 0 .28.03C.25.02.22.04.18.06c0 0-.02 0-.03 0C.15.1.13.1.12.1c0 0 0 .02 0 .02C.07.16.04.2 0 .22c0 .02 0 .02 0 .03C.03.3 0 .35 0 .4v17.87c0 .05 0 .1.03.14 0 .02 0 .03.02.05 0 .03.03.05.05.07 0 .02.02.03.03.04.02.02.05.04.07.05.02.02.03.03.04.03 0 0 .02 0 .02 0l8.3 2.73c.03 0 .07.02.1.02.08 0 .16-.03.23-.07.08-.07.14-.18.14-.3v-2.34h4.15c.2 0 .36-.18.36-.4v-6.6c0-.2-.17-.4-.37-.4zm-4.9 9.2L.74 17.98V.9L8.3 3.4v17.06z"/></g></g></g></g></g></g></svg>