<?xml version="1.0" encoding="UTF-8"?>
<svg width="20px" height="21px" viewBox="0 0 20 21" version="1.1" xmlns="http://www.w3.org/2000/svg" xmlns:xlink="http://www.w3.org/1999/xlink">
    <!-- Generator: Sketch 49 (51002) - http://www.bohemiancoding.com/sketch -->
    <title>user (1)</title>
    <desc>Created with Sketch.</desc>
    <defs>
        <polygon id="path-1" points="0 0 20 0 20 21 0 21"></polygon>
    </defs>
    <g id="Symbol" stroke="none" stroke-width="1" fill="none" fill-rule="evenodd">
        <g id="Menu_perfil_v1" transform="translate(-19.000000, -57.000000)">
            <g id="Menu">
                <g id="menu" transform="translate(14.000000, 39.000000)">
                    <g id="item">
                        <g transform="translate(5.000000, 0.000000)">
                            <g id="user-(1)" transform="translate(0.000000, 18.000000)">
                                <mask id="mask-2" fill="white">
                                    <use xlink:href="#path-1"></use>
                                </mask>
                                <g id="Clip-2"></g>
                                <path d="M20,10.5 C20,4.71115909 15.5131818,0 10,0 C4.48681818,0 0,4.71115909 0,10.5 C0,13.5574091 1.25181818,16.3150909 3.24590909,18.2351591 L3.23681818,18.2447045 L3.56,18.5315455 C3.58136364,18.5501591 3.60454545,18.5649545 3.62590909,18.5840455 C3.79772727,18.7329545 3.97727273,18.8747045 4.15818182,19.0126364 C4.21681818,19.0575 4.27545455,19.1018864 4.33590909,19.14675 C4.53136364,19.2865909 4.73,19.4207045 4.93409091,19.54575 C4.97863636,19.5739091 5.02318182,19.5996818 5.06727273,19.6278409 C5.28954545,19.7600455 5.51863636,19.887 5.75090909,20.0005909 C5.76863636,20.0101364 5.785,20.0172955 5.80272727,20.0268409 C6.56272727,20.3957727 7.37409091,20.6682955 8.22090909,20.8305682 C8.24409091,20.8339091 8.26545455,20.8377273 8.28818182,20.8415455 C8.55090909,20.8902273 8.81727273,20.9274545 9.08727273,20.9532273 C9.11909091,20.9570455 9.15318182,20.9589545 9.185,20.9627727 C9.45318182,20.9852045 9.725,21 10,21 C10.2718182,21 10.5413636,20.9852045 10.8077273,20.9627727 C10.8418182,20.9589545 10.8754545,20.9570455 10.9090909,20.9551364 C11.1772727,20.9293636 11.44,20.8916591 11.7009091,20.8453636 C11.7240909,20.8415455 11.7472727,20.8358182 11.7704545,20.832 C12.6045455,20.6754545 13.4036364,20.4091364 14.1531818,20.0473636 C14.1813636,20.0344773 14.21,20.0211136 14.2363636,20.0082273 C14.4618182,19.8965455 14.6804545,19.7772273 14.8954545,19.6502727 C14.9486364,19.6182955 15.0018182,19.5867955 15.055,19.5533864 C15.2504545,19.4321591 15.4440909,19.3071136 15.6304545,19.1710909 C15.6977273,19.1243182 15.7636364,19.0722955 15.8290909,19.0217045 C15.9890909,18.9023864 16.1468182,18.7778182 16.2977273,18.6470455 C16.3318182,18.6193636 16.3690909,18.5931136 16.4027273,18.5649545 L16.7345455,18.2723864 L16.7240909,18.2633182 C18.7359091,16.3427727 20,13.5741136 20,10.5 Z M0.728181818,10.5 C0.728181818,5.13068182 4.88636364,0.764590909 10,0.764590909 C15.1136364,0.764590909 19.2718182,5.13068182 19.2718182,10.5 C19.2718182,13.3932273 18.0627273,15.9943636 16.1486364,17.7784091 C16.0422727,17.7020455 15.9359091,17.6309318 15.8236364,17.5731818 L12.745,15.9571364 C12.47,15.8115682 12.2977273,15.5209091 12.2977273,15.1963636 L12.2977273,14.0666591 C12.3686364,13.9750227 12.445,13.8705 12.5213636,13.755 C12.9209091,13.1641364 13.2404545,12.5059773 13.4731818,11.7996136 C13.9345455,11.5700455 14.2313636,11.0870455 14.2313636,10.5429545 L14.2313636,9.18940909 C14.2313636,8.85913636 14.1159091,8.53888636 13.91,8.28497727 L13.91,6.50284091 C13.9277273,6.30525 13.995,5.18652273 13.2245455,4.26395455 C12.555,3.46213636 11.47,3.05359091 10,3.05359091 C8.53,3.05359091 7.445,3.46213636 6.77545455,4.26395455 C6.005,5.18652273 6.07227273,6.30525 6.09,6.50284091 L6.09,8.28497727 C5.88409091,8.53697727 5.76863636,8.85913636 5.76863636,9.18940909 L5.76863636,10.5429545 C5.76863636,10.9643864 5.94818182,11.35575 6.25545455,11.6206364 C6.55,12.8324318 7.15545455,13.74975 7.38090909,14.0590227 L7.38090909,15.1643864 C7.38090909,15.4760455 7.21772727,15.7628864 6.95863636,15.9122727 L4.08181818,17.5583864 C3.99136364,17.6104091 3.89909091,17.6719773 3.80863636,17.7411818 C1.91954545,15.9571364 0.728181818,13.3731818 0.728181818,10.5 Z M15.4404545,18.3769091 C15.3127273,18.4737955 15.1827273,18.5687727 15.0513636,18.6585 C14.9909091,18.6995455 14.9309091,18.7405909 14.8704545,18.7816364 C14.6981818,18.8933182 14.5240909,18.9978409 14.345,19.0985455 C14.3059091,19.1190682 14.2668182,19.1395909 14.2277273,19.1615455 C13.8172727,19.3815682 13.3931818,19.572 12.9581818,19.7247273 C12.9440909,19.7304545 12.9277273,19.7361818 12.9118182,19.7414318 C12.6845455,19.8216136 12.4536364,19.8908182 12.2195455,19.9523864 L12.2177273,19.9523864 C11.9813636,20.0139545 11.7436364,20.0640682 11.5040909,20.1070227 C11.4968182,20.1070227 11.4895455,20.1089318 11.4845455,20.1108409 C11.2590909,20.1480682 11.03,20.17575 10.8027273,20.1981818 C10.7618182,20.202 10.7209091,20.2039091 10.68,20.2077273 C10.4545455,20.2244318 10.2272727,20.2354091 10,20.2354091 C9.76909091,20.2354091 9.54,20.2244318 9.31090909,20.2058182 C9.27181818,20.2039091 9.23136364,20.2000909 9.19227273,20.1962727 C8.96136364,20.17575 8.73227273,20.1461591 8.505,20.1089318 L8.475,20.1032045 C7.99363636,20.0172955 7.52136364,19.8946364 7.05954545,19.7323636 C7.04545455,19.7266364 7.03136364,19.7209091 7.01727273,19.7156591 C6.78818182,19.6354773 6.56272727,19.5438409 6.34045455,19.4431364 C6.33863636,19.4431364 6.33681818,19.4431364 6.33545455,19.4412273 C6.12590909,19.34625 5.91954545,19.2417273 5.71545455,19.1300455 C5.68909091,19.11525 5.66227273,19.1018864 5.63545455,19.0870909 C5.44909091,18.9825682 5.26818182,18.8708864 5.08863636,18.7534773 C5.03545455,18.7181591 4.98227273,18.6828409 4.93090909,18.6451364 C4.76545455,18.5334545 4.60227273,18.4141364 4.44409091,18.2890909 C4.42818182,18.2762045 4.41227273,18.2633182 4.39636364,18.2499545 L4.43,18.2294318 L7.30636364,16.5833182 C7.8,16.2998182 8.10727273,15.7557273 8.10727273,15.1643864 L8.10727273,13.7888864 L8.02363636,13.6824545 C8.015,13.6729091 7.23,12.6701591 6.93181818,11.3089773 L6.9,11.1581591 L6.77545455,11.0741591 C6.6,10.9548409 6.495,10.75725 6.495,10.5429545 L6.495,9.18940909 C6.495,9.01234091 6.56772727,8.84625 6.69727273,8.72120455 L6.81818182,8.60761364 L6.81818182,6.48231818 L6.81454545,6.43220455 C6.81454545,6.42265909 6.70636364,5.50343182 7.32227273,4.767 C7.84818182,4.137 8.75,3.81818182 10,3.81818182 C11.2463636,3.81818182 12.145,4.13509091 12.6704545,4.75984091 C13.2863636,5.48863636 13.1854545,6.42456818 13.1854545,6.43220455 L13.1818182,8.60952273 L13.3027273,8.72311364 C13.4322727,8.84625 13.505,9.01234091 13.505,9.18940909 L13.505,10.5429545 C13.505,10.815 13.3272727,11.0631818 13.0754545,11.1452727 L12.8940909,11.2030227 L12.8354545,11.3929773 C12.6209091,12.0921818 12.3154545,12.7388864 11.9281818,13.3135227 C11.8322727,13.4547955 11.74,13.5798409 11.66,13.6767273 L11.5713636,13.7831591 L11.5713636,15.1963636 C11.5713636,15.8115682 11.8963636,16.3652045 12.42,16.6410682 L15.4990909,18.2575909 C15.5186364,18.2666591 15.5381818,18.2781136 15.5577273,18.2890909 C15.5186364,18.3191591 15.4795455,18.3468409 15.4404545,18.3769091 Z" id="Fill-1" fill="#5487C5" mask="url(#mask-2)"></path>
                            </g>
                        </g>
                    </g>
                </g>
            </g>
        </g>
    </g>
</svg>