<?xml version="1.0" encoding="UTF-8"?>
<svg width="20px" height="13px" viewBox="0 0 20 13" version="1.1" xmlns="http://www.w3.org/2000/svg" xmlns:xlink="http://www.w3.org/1999/xlink">
    <!-- Generator: Sketch 49 (51002) - http://www.bohemiancoding.com/sketch -->
    <title>shipped</title>
    <desc>Created with Sketch.</desc>
    <defs>
        <polygon id="path-1" points="0.00234375 0.00499332236 20 0.00499332236 20 12.9402948 0.00234375 12.9402948"></polygon>
    </defs>
    <g id="Symbol" stroke="none" stroke-width="1" fill="none" fill-rule="evenodd">
        <g id="Menu_perfil_v1" transform="translate(-19.000000, -177.000000)">
            <g id="Menu">
                <g id="menu" transform="translate(14.000000, 39.000000)">
                    <g id="item">
                        <g transform="translate(5.000000, 116.000000)">
                            <g id="shipped" transform="translate(0.000000, 22.000000)">
                                <g id="Group-3">
                                    <mask id="mask-2" fill="white">
                                        <use xlink:href="#path-1"></use>
                                    </mask>
                                    <g id="Clip-2"></g>
                                    <path d="M19.0187891,8.20314982 C18.8230859,8.20314982 18.6638672,8.04032756 18.6638672,7.8401952 L18.6638672,7.47724059 L19.3737109,7.47724059 L19.3737109,8.20314982 L19.0187891,8.20314982 Z M16.6805859,12.3021881 C15.9323437,12.3021881 15.3235938,11.6797006 15.3235938,10.9144839 C15.3235938,10.1493072 15.9323437,9.52677971 16.6805859,9.52677971 C17.4288281,9.52677971 18.0375781,10.1493072 18.0375781,10.9144839 C18.0375781,11.6797006 17.4288281,12.3021881 16.6805859,12.3021881 Z M5.65761719,12.3021881 C4.90941406,12.3021881 4.300625,11.6797006 4.300625,10.9144839 C4.300625,10.1493072 4.90941406,9.52677971 5.65761719,9.52677971 C6.40585938,9.52677971 7.01460938,10.1493072 7.01460938,10.9144839 C7.01460938,11.6797006 6.40585938,12.3021881 5.65761719,12.3021881 Z M17.0146094,2.01182955 C17.3944922,2.01182955 17.7035547,2.32788689 17.7035547,2.71636737 L17.7035547,2.73769884 L14.6555469,2.73769884 L14.6555469,2.01182955 L17.0146094,2.01182955 Z M14.6555469,3.37820228 L17.4381641,3.37820228 L17.9496484,5.47040435 L14.6555469,5.47040435 L14.6555469,3.37820228 Z M18.5999219,5.48965861 L18.0819922,3.37109179 C18.2235937,3.34037287 18.3298438,3.21186473 18.3298438,3.05795056 L18.3298438,2.71636737 C18.3298438,1.97471918 17.7398437,1.37136605 17.0146094,1.37136605 L14.6555469,1.37136605 L14.6555469,0.666828242 C14.6555469,0.301876297 14.3652344,0.00499332236 14.0083594,0.00499332236 L1.98328125,0.00499332236 C1.62644531,0.00499332236 1.33613281,0.301876297 1.33613281,0.666828242 L1.33613281,6.47382247 C1.33613281,6.65070592 1.47632813,6.79407419 1.64925781,6.79407419 C1.82222656,6.79407419 1.96242187,6.65070592 1.96242187,6.47382247 L1.96242187,0.666828242 C1.96242187,0.655044001 1.97175781,0.645456822 1.98328125,0.645456822 L14.0083594,0.645456822 C14.0198828,0.645456822 14.0292188,0.655044001 14.0292188,0.666828242 L14.0292188,6.47394231 C14.0292188,6.65078581 14.1694531,6.79415409 14.3423828,6.79415409 C14.5153125,6.79415409 14.6555469,6.65078581 14.6555469,6.47394231 L14.6555469,6.1109078 L18.3496484,6.1109078 C18.3499219,6.1109078 18.3501953,6.11098769 18.3504688,6.11098769 C18.3507813,6.11098769 18.3510547,6.11094775 18.3513672,6.11094775 C18.8059375,6.11122737 19.1919141,6.41637929 19.3244531,6.83681703 L18.3507422,6.83681703 C18.1777734,6.83681703 18.0375781,6.9801853 18.0375781,7.15706876 L18.0375781,7.84023515 C18.0375781,8.39353521 18.4777344,8.84365326 19.0187891,8.84365326 L19.3737109,8.84365326 L19.3737109,10.2526889 L18.5548828,10.2526889 C18.2858984,9.45847106 17.5475391,8.88635616 16.6805859,8.88635616 C15.8135938,8.88635616 15.0752344,9.45847106 14.8062891,10.2526889 L14.6555469,10.2526889 L14.6555469,7.84023515 C14.6555469,7.66339164 14.5153125,7.51998343 14.3423828,7.51998343 C14.1694531,7.51998343 14.0292188,7.66339164 14.0292188,7.84023515 L14.0292188,10.252649 L7.53191406,10.252649 C7.26292969,9.45843111 6.52460937,8.88631621 5.65761719,8.88631621 C4.79066406,8.88631621 4.05226563,9.45843111 3.78335937,10.252649 L1.98328125,10.252649 C1.97175781,10.252649 1.96242187,10.2431018 1.96242187,10.2313175 L1.96242187,9.52677971 L3.31941406,9.52677971 C3.49234375,9.52677971 3.63257813,9.38341144 3.63257813,9.20656793 C3.63257813,9.02968448 3.49234375,8.88631621 3.31941406,8.88631621 L0.313164062,8.88631621 C0.140195313,8.88631621 0,9.02968448 0,9.20656793 C0,9.38341144 0.140195313,9.52677971 0.313164062,9.52677971 L1.33613281,9.52677971 L1.33613281,10.2313175 C1.33613281,10.5962695 1.62644531,10.8931524 1.98328125,10.8931524 L3.67488281,10.8931524 C3.67476563,10.9002629 3.67433594,10.9073335 3.67433594,10.9144839 C3.67433594,12.0328683 4.5640625,12.9426916 5.65761719,12.9426916 C6.75117188,12.9426916 7.6409375,12.0328683 7.6409375,10.9144839 C7.6409375,10.9073335 7.64046875,10.9002629 7.64039063,10.8931524 L14.6977734,10.8931524 C14.6976953,10.9002629 14.6972266,10.9073335 14.6972266,10.9144839 C14.6972266,12.0328683 15.5869531,12.9426916 16.6805469,12.9426916 C17.7741016,12.9426916 18.6638281,12.0328683 18.6638281,10.9144839 C18.6638281,10.9073335 18.6633984,10.9002629 18.6632813,10.8931524 L19.6868359,10.8931524 C19.8598047,10.8931524 20,10.7497842 20,10.5729007 L20,7.15702881 C20,6.31363669 19.3915234,5.6128938 18.5999219,5.48965861 Z" id="Fill-1" fill="#5487C5" mask="url(#mask-2)"></path>
                                </g>
                                <path d="M5.65761719,10.252649 C5.30074219,10.252649 5.01042969,10.549532 5.01042969,10.9144839 C5.01042969,11.2794359 5.30074219,11.5763188 5.65761719,11.5763188 C6.01449219,11.5763188 6.30480469,11.2794359 6.30480469,10.9144839 C6.30480469,10.549532 6.01449219,10.252649 5.65761719,10.252649" id="Fill-4" fill="#5487C5"></path>
                                <path d="M16.6805859,10.252649 C16.3237109,10.252649 16.0333984,10.549532 16.0333984,10.9144839 C16.0333984,11.2794359 16.3237109,11.5763188 16.6805859,11.5763188 C17.0374609,11.5763188 17.3277734,11.2794359 17.3277734,10.9144839 C17.3277734,10.549532 17.0374609,10.252649 16.6805859,10.252649" id="Fill-5" fill="#5487C5"></path>
                                <path d="M8.01671875,9.20656793 C8.01671875,9.38341144 8.15691406,9.52677971 8.32984375,9.52677971 L13.00625,9.52677971 C13.1792188,9.52677971 13.3194141,9.38341144 13.3194141,9.20656793 C13.3194141,9.02968448 13.1792188,8.88631621 13.00625,8.88631621 L8.32984375,8.88631621 C8.15691406,8.88631621 8.01671875,9.02968448 8.01671875,9.20656793" id="Fill-6" fill="#5487C5"></path>
                                <path d="M0.981210937,8.16044692 L4.98957031,8.16044692 C5.1625,8.16044692 5.30269531,8.01703871 5.30269531,7.8401952 C5.30269531,7.6633517 5.1625,7.51994348 4.98957031,7.51994348 L0.981210937,7.51994348 C0.80828125,7.51994348 0.668046875,7.6633517 0.668046875,7.8401952 C0.668046875,8.01703871 0.80828125,8.16044692 0.981210937,8.16044692" id="Fill-7" fill="#5487C5"></path>
                            </g>
                        </g>
                    </g>
                </g>
            </g>
        </g>
    </g>
</svg>