<svg xmlns="http://www.w3.org/2000/svg" width="22" height="30"><title>Group</title><desc>Created with Sketch.</desc><g fill="none"><g><g><g><g><g><g transform="translate(-1 0)"><g fill="#5487C5"><path d="M6.83 5.7c-.1-.07-.14-.18-.14-.3 0-.24.18-.43.42-.44h6.83c.24 0 .43.18.43.4 0 .26-.2.45-.43.45l-6.82.03c-.12 0-.22-.04-.3-.12z"/><path d="M7.04 11.05c-.1-.08-.14-.2-.14-.32 0-.23.2-.43.43-.43l6.83-.02c.24 0 .44.2.43.43 0 .25-.2.44-.44.45l-6.82.02c-.12 0-.22-.05-.3-.12z"/><path d="M6.9 15.9c-.1-.08-.15-.2-.15-.32 0-.24.2-.43.43-.44H14c.25 0 .44.18.44.42s-.2.43-.43.43H7.2c-.1 0-.2-.03-.3-.1z"/><path d="M1.08 24.7V2.2C1.08 1 2.05.02 3.25.02H18c1.2 0 2.17.97 2.17 2.16v22.5c0 1.2-.97 2.16-2.16 2.16H3.26c-1.2 0-2.17-.97-2.17-2.16zM19.3 2.2c0-.72-.58-1.3-1.3-1.3H3.26c-.72 0-1.3.58-1.3 1.3v22.5c0 .72.58 1.3 1.3 1.3H18c.72 0 1.3-.58 1.3-1.3V2.2z"/></g><circle cx="17.654" cy="24.346" r="4.346" fill="#fff"/></g><g fill="#5487C5"><g><path d="M17 20c-2.76 0-5 2.24-5 5s2.24 5 5 5 5-2.24 5-5-2.24-5-5-5zm0 9.18c-2.3 0-4.18-1.87-4.18-4.18 0-2.3 1.88-4.18 4.18-4.18s4.18 1.88 4.18 4.18-1.87 4.18-4.18 4.18z"/></g><path d="M19.56 24.56h-2.12v-2.12c0-.24-.2-.44-.44-.44s-.44.2-.44.44v2.12h-2.12c-.24 0-.44.2-.44.44s.2.44.44.44h2.12v2.12c0 .24.2.44.44.44s.44-.2.44-.44v-2.12h2.12c.24 0 .44-.2.44-.44s-.2-.44-.44-.44z"/></g></g></g></g></g></g></g></svg>