<?xml version="1.0" encoding="UTF-8"?>
<svg width="20px" height="17px" viewBox="0 0 20 17" version="1.1" xmlns="http://www.w3.org/2000/svg" xmlns:xlink="http://www.w3.org/1999/xlink">
    <!-- Generator: Sketch 49 (51002) - http://www.bohemiancoding.com/sketch -->
    <title>chat (1)</title>
    <desc>Created with Sketch.</desc>
    <defs>
        <polygon id="path-1" points="0.00234375 0.0206546313 19.9999609 0.0206546313 19.9999609 16.4198326 0.00234375 16.4198326"></polygon>
    </defs>
    <g id="Symbol" stroke="none" stroke-width="1" fill="none" fill-rule="evenodd">
        <g id="Menu_perfil_v1" transform="translate(-19.000000, -407.000000)">
            <g id="Menu">
                <g id="menu" transform="translate(14.000000, 39.000000)">
                    <g id="item">
                        <g transform="translate(5.000000, 348.000000)">
                            <g id="chat-(1)" transform="translate(0.000000, 20.000000)">
                                <g id="Group-4">
                                    <mask id="mask-2" fill="white">
                                        <use xlink:href="#path-1"></use>
                                    </mask>
                                    <g id="Clip-2"></g>
                                    <path d="M6.79980469,9.59129963 C6.79980469,9.59129963 5.91347656,9.59193884 5.90421875,9.59289766 C5.79441406,9.60052829 5.68660156,9.64679147 5.60261719,9.73264602 L2.93976562,12.456061 C2.93976562,12.456061 2.93894531,10.0433444 2.93738281,10.0308398 C2.91613281,9.78454228 2.71410156,9.59129963 2.46773438,9.59129963 L1.12621094,9.59129963 C1.02550781,9.59129963 0.94359375,9.50756248 0.94359375,9.40456898 L0.94359375,1.17243997 C0.94359375,1.06948642 1.02550781,0.985709317 1.12621094,0.985709317 L14.5425781,0.985709317 C14.6432422,0.985709317 14.7251562,1.06948642 14.7251562,1.17243997 L14.7251562,4.33080076 C14.7251562,4.59727347 14.9364062,4.8133281 15.1969531,4.8133281 C15.4575,4.8133281 15.66875,4.59727347 15.66875,4.33080076 L15.66875,1.17243997 C15.66875,0.53734002 15.1635547,0.0206546313 14.5425781,0.0206546313 L1.12621094,0.0206546313 C0.505195312,0.0206546313 0,0.53734002 0,1.17243997 L0,9.40456898 C0,10.0396689 0.505195312,10.5563943 1.12621094,10.5563943 L1.99613281,10.5563943 L1.99613281,13.6209902 C1.99613281,13.8161505 2.11109375,13.9921344 2.28738281,14.0668027 C2.34574219,14.0915722 2.40710938,14.1035975 2.46785156,14.1035975 C2.59066406,14.1035975 2.71132812,14.0544978 2.8015625,13.9622511 L6.13167969,10.5564342 L6.79980469,10.5564342 C7.06039063,10.5564342 7.27160156,10.3404195 7.27160156,10.0739069 C7.27160156,9.80735426 7.06035156,9.59129963 6.79980469,9.59129963" id="Fill-1" fill="#5487C5" mask="url(#mask-2)"></path>
                                    <path d="M19.0564063,12.6904931 C19.0564063,12.7934466 18.9744922,12.8772237 18.8737891,12.8772237 L18.0778906,12.8772237 C17.8296094,12.8772237 17.6265625,13.0734627 17.6079297,13.3225568 C17.6066797,13.3331038 17.6059375,14.772376 17.6059375,14.772376 L15.8928516,13.020328 C15.8910547,13.0184902 15.8891797,13.0167723 15.8873828,13.0149346 C15.8807031,13.0082228 15.8743359,13.00239 15.8682813,12.9971964 C15.7852344,12.9227278 15.6767969,12.8772237 15.5576953,12.8772237 L9.48257813,12.8772237 C9.381875,12.8772237 9.3,12.7934466 9.3,12.6904931 L9.3,7.07455079 C9.3,6.97159724 9.381875,6.88782014 9.48257813,6.88782014 L18.8737891,6.88782014 C18.9744922,6.88782014 19.0564063,6.97159724 19.0564063,7.07455079 L19.0564063,12.6904931 Z M18.8737891,5.92276545 L9.48257813,5.92276545 C8.86160156,5.92276545 8.35636719,6.43945084 8.35636719,7.07455079 L8.35636719,12.6904931 C8.35636719,13.325593 8.86160156,13.8422784 9.48257813,13.8422784 L15.3620313,13.8422784 L17.7440625,16.2784862 C17.8343359,16.3708128 17.955,16.4198326 18.0777734,16.4198326 C18.1385547,16.4198326 18.1998828,16.4078074 18.2582422,16.3830777 C18.4344922,16.3083695 18.5494922,16.1324256 18.5494922,15.9372653 L18.5494922,13.8422385 L18.87375,13.8422385 C19.4947266,13.8422385 19.9999609,13.3255531 19.9999609,12.6904531 L19.9999609,7.07455079 C20,6.43945084 19.4948047,5.92276545 18.8737891,5.92276545 Z" id="Fill-3" fill="#5487C5" mask="url(#mask-2)"></path>
                                </g>
                                <path d="M14.1782813,9.40005452 C13.9178516,9.40005452 13.7064844,9.61622901 13.7064844,9.88258186 C13.7064844,10.1489347 13.9178516,10.3651092 14.1782813,10.3651092 C14.43875,10.3651092 14.6500781,10.1489347 14.6500781,9.88258186 C14.6500781,9.61622901 14.4387109,9.40005452 14.1782813,9.40005452" id="Fill-5" fill="#5487C5"></path>
                                <path d="M3.54101563,3.21085631 C3.28050781,3.21085631 3.06921875,3.42691095 3.06921875,3.69342361 C3.06921875,3.95989632 3.28050781,4.17595095 3.54101563,4.17595095 L12.1278125,4.17595095 C12.3883594,4.17595095 12.5996484,3.95989632 12.5996484,3.69342361 C12.5996484,3.42691095 12.3883594,3.21085631 12.1278125,3.21085631 L3.54101563,3.21085631" id="Fill-6" fill="#5487C5"></path>
                                <path d="M6.79980469,6.40109795 L3.54101563,6.40109795 C3.28050781,6.40109795 3.06921875,6.61711263 3.06921875,6.88362529 C3.06921875,7.15013795 3.28050781,7.36615263 3.54101563,7.36615263 L6.79980469,7.36615263 C7.06039063,7.36615263 7.27160156,7.15013795 7.27160156,6.88362529 C7.27160156,6.61711263 7.06035156,6.40109795 6.79980469,6.40109795" id="Fill-7" fill="#5487C5"></path>
                                <path d="M11.9858203,9.40005452 C11.7254297,9.40005452 11.5140234,9.61622901 11.5140234,9.88258186 C11.5140234,10.1489347 11.7254297,10.3651092 11.9858203,10.3651092 C12.2462891,10.3651092 12.4576172,10.1489347 12.4576172,9.88258186 C12.4576172,9.61622901 12.2462891,9.40005452 11.9858203,9.40005452" id="Fill-8" fill="#5487C5"></path>
                                <path d="M16.3702734,9.40005452 C16.1098438,9.40005452 15.8984766,9.61622901 15.8984766,9.88258186 C15.8984766,10.1489347 16.1098438,10.3651092 16.3702734,10.3651092 C16.6307422,10.3651092 16.8420703,10.1489347 16.8420703,9.88258186 C16.8420703,9.61622901 16.6307031,9.40005452 16.3702734,9.40005452" id="Fill-9" fill="#5487C5"></path>
                            </g>
                        </g>
                    </g>
                </g>
            </g>
        </g>
    </g>
</svg>