<svg xmlns="http://www.w3.org/2000/svg" xmlns:xlink="http://www.w3.org/1999/xlink" width="100" height="100" viewBox="0 0 100 100">
    <defs>
        <path id="a" d="M0 0h100v100H0z"/>
    </defs>
    <g fill="none" fill-rule="evenodd" opacity=".45">
        <g>
            <mask id="b" fill="#fff">
                <use xlink:href="#a"/>
            </mask>
            <path fill="#D20000" d="M98.262 36.9C92.505 15.64 73.081 0 50 0 22.386 0 0 22.386 0 50c0 23.019 15.556 42.4 36.728 48.216A50.049 50.049 0 0 0 50 100c27.614 0 50-22.386 50-50a50.05 50.05 0 0 0-1.738-13.1" mask="url(#b)"/>
        </g>
        <path fill="#D7F7FA" d="M50 6.522L35.507 50 50 93.478c23.974 0 43.478-19.504 43.478-43.478S73.974 6.522 50 6.522"/>
        <path fill="#FFF" d="M6.522 50c0 23.974 19.504 43.478 43.478 43.478V6.522C26.026 6.522 6.522 26.026 6.522 50"/>
        <path fill="#FF000B" d="M50.022 11.26c-21.506 0-39.13 17.624-39.13 39.13 0 21.507 17.624 39.131 39.13 39.131 21.507 0 39.13-17.624 39.13-39.13 0-21.507-17.623-39.13-39.13-39.13"/>
        <path fill="#8C0000" d="M89.153 50.39c0 21.507-17.624 39.131-39.13 39.131v-78.26c21.506 0 39.13 17.623 39.13 39.13"/>
        <path fill="#FFF" d="M56.488 50.39l12.977 12.978L63 69.834 50.022 56.856 37.045 69.834l-6.466-6.466 12.978-12.977-12.978-12.978 6.466-6.465 12.977 12.977L63 30.948l6.465 6.465z"/>
        <path fill="#DBDBDB" d="M56.488 50.39l12.977 12.978L63 69.834 50.022 56.856V43.925L63 30.948l6.465 6.465z"/>
    </g>
</svg>
