<svg xmlns="http://www.w3.org/2000/svg" xmlns:xlink="http://www.w3.org/1999/xlink" width="100" height="100" viewBox="0 0 100 100">
    <defs>
        <path id="a" d="M0 0h100v100H0z"/>
    </defs>
    <g fill="none" fill-rule="evenodd" opacity=".45">
        <g>
            <mask id="b" fill="#fff">
                <use xlink:href="#a"/>
            </mask>
            <path fill="#5094D8" d="M98.262 36.9C92.505 15.64 73.081 0 50 0 22.386 0 0 22.386 0 50c0 23.019 15.556 42.4 36.728 48.216A50.049 50.049 0 0 0 50 100c27.614 0 50-22.386 50-50a50.05 50.05 0 0 0-1.738-13.1" mask="url(#b)"/>
        </g>
        <path fill="#D7F7FA" d="M50 6.522L35.507 50 50 93.478c23.974 0 43.478-19.504 43.478-43.478S73.974 6.522 50 6.522"/>
        <path fill="#FFF" d="M6.522 50c0 23.974 19.504 43.478 43.478 43.478V6.522C26.026 6.522 6.522 26.026 6.522 50"/>
        <path fill="#B0C8EB" d="M50 10.87L36.956 50 50 89.13c21.577 0 39.13-17.553 39.13-39.13S71.577 10.87 50 10.87"/>
        <path fill="#C2DBFF" d="M10.87 50c0 21.577 17.553 39.13 39.13 39.13V10.87c-21.577 0-39.13 17.553-39.13 39.13"/>
        <path fill="#E8E8E8" d="M67.507 29.333L50 46.84l-4.348 18.446H50l26.73-26.73z"/>
        <path fill="#FFF" d="M42.604 54.235l-12.45-12.452-9.224 9.223 21.674 21.676L50 65.286V46.84z"/>
    </g>
</svg>
